<?xml version="1.0" encoding="utf-8"?>
<!DOCTYPE svg PUBLIC "-//W3C//DTD SVG 1.0//EN" "http://www.w3.org/TR/2001/REC-SVG-20010904/DTD/svg10.dtd">
<svg version="1.0" xmlns="http://www.w3.org/2000/svg" viewBox="138 80 760 742" preserveAspectRatio="xMidYMid meet">
 <g fill="#000000">
  <path d="M356.7 812.9 c-9.6 -0.9 -20.3 -4.7 -31.9 -11.2 -9.9 -5.5 -24.7 -19.4 -23.3 -21.7 0.3 -0.5 0.3 -1 -0.2 -1 -1.2 0 -3.3 -5 -3.3 -7.7 0 -1.8 -0.6 -2.3 -2.6 -2.3 -2 0 -2.9 -0.9 -4.4 -4.3 -4.8 -10.9 -5.8 -23 -3.4 -40.8 0.7 -5.2 -0.7 -6.6 -4.9 -5 -4.5 1.7 -15.3 2.3 -23.1 1.2 -9.3 -1.3 -15 -3.1 -22.8 -7.3 -5 -2.6 -5.8 -3.5 -5.8 -5.9 0 -2.7 -0.3 -2.9 -3.8 -2.9 -3.3 0 -4.5 -0.8 -10.9 -7.2 -8.3 -8.5 -13.3 -16 -13.3 -20 0 -1.5 -0.4 -2.8 -1 -2.8 -0.5 0 -1 -1.6 -1 -3.5 0 -2.5 -0.4 -3.5 -1.5 -3.5 -2 0 -3.4 -3.6 -5.2 -14 -2.6 -14.4 -0.3 -36.9 4.3 -42.1 0.8 -0.8 1.4 -2.1 1.4 -2.7 0 -0.7 0.6 -1.2 1.3 -1.2 0.9 0 1.2 -1.1 0.9 -3.4 -0.8 -6.4 13.3 -25.2 21.6 -28.7 2.3 -1 4.2 -2.4 4.2 -3.2 0 -0.8 1.1 -1.9 2.5 -2.5 1.4 -0.6 2.5 -1.6 2.5 -2.2 0 -0.5 1.1 -1 2.5 -1 1.5 0 2.5 -0.6 2.5 -1.5 0 -1.9 8.2 -6 20.5 -10.1 11.9 -4.1 36.5 -7.9 60.5 -9.4 25.5 -1.5 33.3 -2 36.4 -2 3.7 0 13.6 -4.7 13.6 -6.5 0 -0.8 1 -2 2.3 -2.6 1.2 -0.6 8.1 -5.2 15.4 -10 7.3 -4.9 14.1 -8.9 15.2 -8.9 1.1 0 2.7 -0.7 3.6 -1.6 4.7 -4.7 14.6 -7.1 15.9 -3.8 1.5 4 0.6 7.3 -2.4 8.9 -1.6 0.9 -3 2.2 -3 2.9 0 0.8 -0.7 1.6 -1.5 2 -0.8 0.3 -1.5 1.1 -1.5 1.8 -0.1 1.5 -1.5 2.6 -17.8 13.5 -7.1 4.7 -13.4 8.3 -14.8 8.3 -1.4 0 -2.7 0.6 -3 1.4 -0.3 0.8 -1.7 1.7 -3.2 2.1 -1.5 0.3 -3.8 1.7 -5.2 2.9 -6.6 6.2 -22.9 8.6 -58.2 8.6 -16 0 -20.8 0.3 -20.8 1.3 0 0.7 -4 2 -10.8 3.4 -5.9 1.2 -14.8 3.7 -19.7 5.6 -6.4 2.5 -9.2 3.2 -9.7 2.4 -0.5 -0.8 -0.8 -0.7 -0.8 0.3 0 1.7 -4.9 5 -7.3 5 -1.8 0 -14.6 13 -19.4 19.7 -1.9 2.6 -4.9 7.4 -6.6 10.7 -1.8 3.2 -3.8 7 -4.6 8.5 -2.2 3.9 -2.5 22.2 -0.7 31.1 0.9 4 1.3 7.6 1.1 8.1 -0.3 0.4 0.1 1.3 0.8 2.1 0.7 0.7 2.3 3.7 3.5 6.6 1.2 3 3.8 7.7 5.8 10.5 4.9 7 19.3 20.6 22.4 21.3 1.4 0.3 5.3 1.5 8.7 2.5 8.3 2.7 21.7 2.6 34.3 -0.2 15.3 -3.4 15.8 -3.4 18.6 -0.8 3 2.8 3 4.7 -0.2 20 -2.6 12.8 -2.7 14.6 -0.8 37 0.6 8 0.9 8.5 6.7 10.3 0.9 0.3 1.7 1.4 1.7 2.4 0 1.8 6.7 7.8 16.9 15 6.2 4.4 17.2 8.8 25.4 10.2 7.6 1.4 25.8 0.8 30 -0.9 1.6 -0.6 3.2 -1.1 3.6 -1.1 3.5 0 20.5 -9.9 26.3 -15.3 1.5 -1.4 3.7 -2.8 4.8 -3.2 1.2 -0.4 2 -1.5 2 -2.7 0 -1.2 1.2 -3.6 2.6 -5.5 7.7 -10.1 16 -36.4 17.9 -56.8 0.3 -2.7 0.7 -7.2 1.1 -10 0.3 -2.7 0.9 -14.4 1.4 -26 0.6 -16.7 1.2 -22.2 2.8 -27.1 2.5 -7.7 7.9 -18.4 9.2 -18.4 0.6 0 1 -0.7 1 -1.6 0 -2.6 26.3 -41.2 28.7 -42.1 0.7 -0.3 2 -2.1 2.8 -3.9 0.8 -1.9 2.1 -3.4 3 -3.4 0.9 0 2.5 -0.9 3.7 -2 2 -1.8 2 -2 0.4 -2 -1.7 0 -1.6 -0.3 0.5 -2.9 11.4 -13.9 14.4 -17.5 19.9 -23.6 3.5 -3.8 7.7 -7.8 9.4 -8.8 1.7 -0.9 3.3 -2.7 3.6 -4 0.4 -1.3 1.5 -2.3 2.8 -2.5 1.5 -0.2 2.2 -1 2.2 -2.5 0 -2.8 14.1 -18.2 17.4 -19.1 1.4 -0.3 2.6 -1.6 3 -2.9 0.6 -2.7 33.8 -35.7 35.8 -35.7 0.8 0 1.8 -1.1 2.4 -2.4 0.5 -1.3 4.8 -5.8 9.5 -10 7.4 -6.5 9.2 -7.6 12.3 -7.6 3.4 0 3.6 -0.2 4.2 -3.8 0.5 -3.3 1.8 -4.9 8.7 -10.8 12 -10.2 18.9 -15.4 20.4 -15.4 1.9 0 5.4 -2.2 7.4 -4.5 0.9 -1.1 3.3 -2.7 5.3 -3.5 2.6 -1 3.6 -2 3.6 -3.5 0 -2.3 1.1 -3.2 20.4 -16.4 6.6 -4.4 12.9 -8.1 14 -8.1 1.2 -0.1 3.9 -1.4 6.1 -3 6 -4.5 15.3 -8.8 21.3 -10 2.9 -0.5 10.4 -1.2 16.5 -1.5 34.9 -1.6 32.5 -1.7 33 0.2 0.4 1.7 0.5 1.7 0.6 0.1 0 -1 0.7 -1.8 1.4 -1.9 0.6 0 1.9 -0.2 2.7 -0.3 7.1 -1.4 12 -1.6 12 -0.5 0 0.8 0.4 0.8 1.3 0.1 0.7 -0.6 4.4 -1.8 8.2 -2.6 10.2 -2.4 22.4 -6.5 27.1 -9.2 2.2 -1.3 5 -2.4 6 -2.4 1.1 0 3.5 -1.6 5.4 -3.5 1.9 -2 4.4 -3.5 5.7 -3.5 1.6 0 2.3 -0.6 2.3 -1.8 0 -1.1 0.9 -2.7 2.1 -3.8 4.1 -3.7 13.7 -19.3 15.7 -25.5 4.5 -14 5.2 -22.6 2.7 -34.4 -0.8 -3.8 -1.5 -8.7 -1.5 -10.7 0 -2.1 -0.4 -3.8 -1 -3.8 -0.5 0 -3.6 -3.9 -6.9 -8.7 -3.2 -4.9 -8 -10.8 -10.5 -13.3 -2.5 -2.4 -4.6 -5 -4.6 -5.7 0 -0.7 -1 -1.3 -2.2 -1.3 -1.1 0 -3.6 -1.2 -5.5 -2.6 -1.8 -1.4 -4.1 -2.7 -5.1 -2.9 -0.9 -0.1 -4.3 -1.1 -7.5 -2 -6.8 -2 -17 -1.7 -30.7 0.8 -16.7 3 -16.8 3 -19.6 0.2 -2.3 -2.3 -2.5 -3.1 -1.9 -7.8 0.4 -2.9 1.5 -8.8 2.5 -13.2 1 -4.4 2.1 -10 2.4 -12.4 1.1 -10.1 -3.1 -23.1 -11.4 -34.9 -2.2 -3.2 -4 -6.7 -4 -7.9 0 -1.6 -0.8 -2.2 -3.5 -2.7 -1.9 -0.4 -4 -1.5 -4.7 -2.5 -2.7 -3.7 -19.5 -11.4 -29.5 -13.6 -1.8 -0.3 -3.3 -1.3 -3.3 -2 0 -1.9 -20 -2.7 -21.6 -0.8 -0.6 0.7 -1.9 1.3 -2.8 1.3 -0.9 0 -1.6 0.6 -1.6 1.4 0 0.8 -2.4 2.3 -5.5 3.5 -7.7 2.9 -12.3 5.4 -16.9 9 -2.1 1.7 -4.9 3.1 -6.2 3.1 -1.8 0 -2.4 0.5 -2.4 2.3 0 1.3 -1.5 3.8 -3.5 5.7 -2 1.9 -4.3 4.8 -5.2 6.5 -6.8 13 -9.6 19.5 -12 27.6 -1.5 5.2 -3 9.6 -3.3 9.9 -0.3 0.3 -0.6 1.9 -0.6 3.5 -0.1 1.7 -0.7 6.8 -1.4 11.5 -1.5 10.1 -1.5 10.4 -2.4 34 -0.7 18 -1.8 28.4 -3.5 32.5 -6.8 16.9 -28 51.7 -32 52.8 -1 0.2 -2.1 1.7 -2.5 3.3 -1 3.7 -3.4 6.4 -5.8 6.4 -1 0 -1.8 0.5 -1.8 1 0 0.6 -0.7 1 -1.5 1 -0.8 0 -1.5 0.9 -1.5 1.9 0 3.5 -1.2 5.1 -3.6 5.1 -2.2 0 -2.4 0.4 -2.4 4.3 0 3.9 -0.8 5.1 -10.6 16.5 -5.8 6.8 -11.3 12.6 -12.2 12.9 -3.9 1.5 -7.2 4.8 -7.2 7.2 0 2.3 -5.1 7.8 -16.9 18.1 -2.2 1.9 -4.1 3.9 -4.1 4.4 0 0.4 -1.1 1.7 -2.5 2.8 -1.4 1.1 -2.5 2.5 -2.5 3.3 0 0.7 -4.8 6.1 -10.7 11.9 -9.2 9.2 -11.1 10.6 -14 10.6 -2.9 0 -3.3 0.3 -3.3 2.5 0 1.4 -0.9 3 -2 3.7 -1.1 0.7 -2 1.8 -2 2.4 0 1.9 -14.8 15.9 -18.2 17.1 -1.8 0.7 -4.8 1.2 -6.5 1.2 -3.2 0.1 -3.3 0.2 -3.3 4.4 0 4.2 -0.3 4.5 -8.7 11.8 -14.3 12.2 -16.7 13.9 -19.1 13.2 -1.5 -0.4 -2.2 -0.1 -2.2 0.9 0 0.8 -1.1 2.1 -2.5 2.8 -1.4 0.7 -2.5 1.7 -2.5 2.2 0 0.4 -1.6 0.8 -3.5 0.8 -3.3 0 -3.5 -0.2 -3.5 -3.5 0 -1.9 0.5 -3.5 1 -3.5 0.6 0 1 -1.6 1 -3.5 0 -3.2 0.2 -3.5 3 -3.5 1.7 0 3 -0.4 3 -1 0 -0.5 -0.4 -1 -1 -1 -0.5 0 -1 -0.8 -1 -1.8 0 -1 5.2 -6.1 12.9 -12.5 12.2 -10.1 13.2 -10.7 17.4 -10.7 l4.5 0 0.7 -4.9 c0.6 -4.4 1.3 -5.5 6.3 -9.8 3 -2.6 6.7 -6 8.1 -7.5 1.4 -1.5 3.8 -3 5.3 -3.3 1.5 -0.4 2.9 -1.3 3.2 -2.1 0.3 -0.8 1.6 -1.4 2.9 -1.4 2 0 2.3 -0.4 2 -2.7 -0.3 -2.4 1.1 -4.3 9.4 -12.9 10 -10.4 15 -14.4 17.6 -14.4 0.8 0 1.8 -1.2 2.1 -2.6 1.4 -5.5 18.6 -24.4 22.2 -24.4 1.9 0 2.4 -0.5 2.4 -2.6 0 -1.8 3.5 -6.7 12.2 -17 11.2 -13.4 12.3 -14.5 15.2 -14.2 2.2 0.2 3.2 0.9 3.7 2.8 0.6 2 0.7 1.7 0.8 -1.7 0.1 -3.1 0.6 -4.3 2 -4.8 1.8 -0.5 3.1 -4.8 3.1 -10.5 0 -2.5 4.2 -8 6 -8 0.6 0 1 -0.9 1 -1.9 0 -1.1 3.5 -7.3 7.8 -13.8 4.3 -6.5 8.5 -12.9 9.2 -14.3 0.7 -1.4 2.1 -3.1 3.1 -3.8 1 -0.7 2.4 -3.2 3.1 -5.5 0.6 -2.3 1.9 -5.3 2.7 -6.6 1.2 -1.8 1.7 -7.1 2.2 -22 0.9 -25.9 2.8 -44.9 4.7 -46.8 1 -1 1.3 -2.7 0.9 -5.6 -1 -7.5 5.7 -30.7 12.4 -42.6 6.9 -12.2 18.7 -25.6 28.9 -32.6 5.9 -4.1 15.7 -8.9 23 -11.1 11.3 -3.5 33.9 -5 35.6 -2.3 0.3 0.5 2.3 0.9 4.4 0.9 6.8 0 13.8 2.2 23.8 7.5 7.1 3.8 9.8 5.7 10 7.3 0.2 1.5 1.1 2.2 2.5 2.2 3 0 4.4 1.1 5.6 4.3 0.6 1.5 2.2 3.2 3.6 3.7 6.5 2.5 15.8 18 19.6 32.7 2 8 2.5 21.3 1 29 -0.4 2.3 -0.5 4.6 -0.2 5 0.3 0.5 4.6 0.5 9.9 -0.1 14.4 -1.5 35.8 2.2 36.9 6.5 0.3 0.8 2 2.1 3.9 2.8 1.9 0.7 5 2.8 6.9 4.7 1.9 1.9 4.1 3.4 5 3.4 2.7 0 6.3 3 11.4 9.4 5.7 7.3 10.1 14.6 10.1 17 0 0.9 0.9 2.9 2 4.4 4 5.5 6.2 17.4 6.3 33.7 0.1 13.6 -0.2 15.8 -2.7 23.9 -4.1 13.6 -18.2 35.6 -22.8 35.6 -0.7 0 -2 1.2 -2.9 2.8 -2 3.5 -16.4 13.1 -25.6 17 -9 3.8 -33 10.2 -40.3 10.8 -3 0.2 -9.1 0.8 -13.5 1.4 -4.4 0.6 -16.8 1.5 -27.5 2 -10.7 0.5 -22 1.4 -25 2 -3 0.6 -7.4 1.4 -9.7 1.7 -3.4 0.4 -4.3 1 -5.1 3.2 -0.6 1.7 -2.8 3.8 -5.8 5.6 -2.7 1.5 -10.5 6.6 -17.3 11.2 -11.1 7.7 -12.6 8.4 -14.8 7.4 -3.3 -1.5 -3.3 -1.5 -3.3 2.4 0 2.9 -0.6 3.9 -3 5.3 -1.6 0.9 -3 2 -3 2.5 0 0.4 -0.4 0.7 -0.8 0.7 -0.5 0 -2.4 1.3 -4.3 2.9 -8.2 7.1 -27.8 23.1 -28.1 23.1 -0.3 0 -5.4 4.7 -11.4 10.5 -6 5.8 -11.6 10.5 -12.6 10.5 -0.9 0 -2.5 1.1 -3.5 2.3 -1 1.3 -2.8 2.9 -4.1 3.6 -1.2 0.6 -2.2 1.9 -2.2 2.9 0 1.9 -25.8 28.2 -27.7 28.2 -0.7 0 -1.3 0.4 -1.3 1 0 1.1 -3.5 5.1 -14.5 16.7 -4.4 4.7 -8.1 8.9 -8.3 9.4 -0.2 0.5 -1.5 0.9 -2.8 0.9 -1.8 0 -2.4 0.5 -2.4 2.1 0 1.1 -5.9 9 -14.2 18.7 -13.4 15.8 -15.9 18.3 -20 19.8 -1.1 0.4 -1.8 1.7 -1.8 3 0 1.3 -0.4 2.4 -1 2.4 -0.5 0 -1 0.9 -1 2 0 1.1 -1.6 3.7 -3.5 5.9 -1.9 2.1 -3.5 4.1 -3.5 4.5 0 0.4 -4.2 6.7 -9.3 13.9 -5.1 7.3 -11 16.1 -13.1 19.5 -2 3.4 -4.4 6.2 -5.2 6.2 -0.9 0 -1.4 1 -1.4 2.8 0 1.5 -0.4 3.2 -0.9 3.8 -1.6 1.6 -2.2 7.2 -3.1 25.9 -1 21.6 -2.9 42.4 -4.1 44.7 -0.5 0.9 -0.9 3.8 -0.9 6.3 0 8.9 -6 28.7 -12.7 41.8 -2.5 4.8 -5.1 8.7 -5.9 8.7 -0.8 0 -1.4 0.9 -1.4 2 0 1.1 -0.8 2.3 -1.7 2.7 -2.5 0.9 -7.2 5.5 -7.3 7.1 0 0.7 -0.7 1.5 -1.5 1.8 -0.8 0.4 -1.5 1.2 -1.5 1.9 0 1.9 -10.4 9.7 -18.9 14.2 -5.2 2.7 -9 3.9 -13.8 4.4 -4.2 0.4 -7.1 1.3 -7.8 2.2 -2 2.8 -14 3.9 -27.8 2.6z"/>
  <path d="M663.8 220.3 c-3.2 -0.4 -3.8 -0.8 -3.8 -2.8 0 -1.3 -0.5 -3.5 -1.1 -4.9 -2.4 -5.2 4.3 -27 10.2 -33.6 1.8 -1.9 3.5 -4.6 3.9 -6 0.3 -1.4 1.6 -2.9 2.8 -3.5 1.2 -0.5 2.2 -1.4 2.2 -2 0.1 -2.8 16.2 -11.2 25.8 -13.5 4.8 -1.1 5.7 -1 9 0.6 6.1 3.1 7.2 4.4 7.2 8.5 0 4.6 -2.7 6.9 -8 6.9 -1.9 0.1 -5.7 0.9 -8.5 1.8 -6 2.1 -17.1 9.1 -17.9 11.2 -0.3 0.8 -2.1 4.4 -4 7.8 -2.9 5.4 -5.1 12.4 -7.2 24 -0.5 2.7 -3.9 6.3 -5.6 6 -0.7 -0.1 -3 -0.3 -5 -0.5z"/>
 </g>
 <g fill="#080808">
  <path d="M354.5 812.5 c-0.5 -0.1 -3.7 -0.9 -7 -1.6 -9.4 -2 -31.8 -12.9 -30.1 -14.6 0.3 -0.4 1.5 0.2 2.5 1.1 2.4 2.2 7.1 2.8 7.8 1 0.3 -0.8 0.9 -1.2 1.4 -0.9 0.4 0.3 0.6 1.2 0.2 2 -0.3 0.9 0.1 1.6 1.1 1.7 0.9 0 2.2 0.1 2.9 0.2 0.6 0.1 1.6 0.7 2 1.4 0.4 0.6 1.3 1.2 1.9 1.2 1.8 0 8.8 3.3 8.8 4.2 0 0.4 0.9 0.8 2 0.8 1.1 0 2 0.4 2 0.9 0 0.5 3 1.3 6.8 1.8 5 0.8 5.7 1 2.7 1.1 -2.2 0 -4.4 -0.1 -5 -0.3z"/>
  <path d="M373.5 812.4 c1.1 -0.3 3 -0.7 4.1 -0.9 1.2 -0.3 2.4 -1.4 2.7 -2.5 0.7 -2.8 4 -3.7 15.1 -4.1 9 -0.4 9.5 -0.3 6.4 1 -9.4 3.9 -17.2 6.1 -23.4 6.5 -3.8 0.3 -6 0.3 -4.9 0z"/>
  <path d="M375.5 799.5 c-2.2 -0.8 -6 -1.5 -8.5 -1.6 -9.8 -0.3 -10.2 -1.6 -0.5 -1.6 5.9 0 12.6 -0.7 16.3 -1.7 3.5 -0.9 6.5 -1.6 6.7 -1.6 1.1 0 -1.2 3.7 -3.4 5.7 -3 2.6 -5.1 2.8 -10.6 0.8z"/>
  <path d="M347.8 798.2 c-1 -0.2 -1.8 -0.7 -1.8 -1.2 0 -0.5 -2.2 -1.2 -5 -1.6 -4.2 -0.6 -4.8 -0.9 -4 -2.3 0.6 -1.2 0.2 -2.2 -1.8 -3.8 -2.4 -2 -1.9 -1.9 3.8 0.7 3.6 1.6 9 3.6 12 4.4 4.2 1.1 5 1.6 3.5 2.1 -1.1 0.3 -2.7 1 -3.5 1.4 -0.8 0.4 -2.3 0.5 -3.2 0.3z"/>
  <path d="M421.6 792.6 c0.3 -0.9 0 -2.3 -0.7 -3.2 -1.2 -1.4 -1 -1.9 1.4 -3.8 1.5 -1.2 2.7 -2.6 2.7 -3.1 0.1 -1.3 5.1 -6 7.3 -6.8 1.1 -0.4 1.7 -1.7 1.7 -3.7 0 -3.3 0.9 -3.7 4 -1.8 1.6 1.1 2.2 0.9 3.5 -0.7 0.9 -1.1 0.5 0 -0.8 2.4 -4.2 7.4 -21 25.6 -19.1 20.7z"/>
  <path d="M397.2 789.6 c3.7 -1.8 7.5 -3.9 8.5 -4.7 1.6 -1.3 1.7 -1.2 0.4 0.3 -1.2 1.7 -13.2 7.9 -14.9 7.7 -0.4 0 2.3 -1.5 6 -3.3z"/>
  <path d="M302.2 782.5 c-5.5 -6.1 -14.3 -22.6 -14.2 -26.4 0.1 -1.4 2.1 2.7 3 6.1 0.8 2.6 1.5 3.5 2.8 3.3 0.9 -0.2 3.1 -0.4 4.7 -0.4 3.3 -0.1 3.1 1.1 3.6 -17.1 l0.2 -7.5 0.8 5.2 c1.3 7.9 5.4 17.1 10.8 24.3 3.9 5.1 4.6 6.7 3.5 7.3 -2.1 1.2 -6.8 -1.5 -7.2 -4.1 -0.2 -1.3 -1.1 -2.6 -2 -2.8 -0.9 -0.3 -2.4 -0.9 -3.4 -1.4 -2.6 -1.4 -4.1 1.1 -2.5 4.3 0.8 1.7 2.3 2.8 4.5 3.2 3.4 0.6 3.5 2.5 0.1 2.5 -2.5 0 -2.4 1.4 0.4 3.4 l2.2 1.7 -2.8 -0.4 c-2.2 -0.3 -2.5 -0.2 -1.6 0.9 2.5 3 -0.1 1.2 -2.9 -2.1z"/>
  <path d="M325.3 782.7 c-2.3 -1.7 -4.5 -3.8 -4.8 -4.6 -0.4 -1.1 2.3 1 9 7 2.2 2.1 -0.3 0.6 -4.2 -2.4z"/>
  <path d="M413.2 779.1 c6.2 -5.7 11.3 -12.1 16 -20.4 1.6 -2.8 2.6 -4.3 2.2 -3.2 -0.4 1.1 -0.9 4 -1 6.4 -0.1 3.5 -0.7 5 -2.9 6.8 -2.1 1.9 -2.6 2.9 -2.1 4.9 0.6 2.2 0.2 2.7 -2.4 3.7 -1.6 0.6 -3 1.5 -3 1.9 0 1.1 -4.9 3.4 -9 4.3 l-3.4 0.8 5.6 -5.2z"/>
  <path d="M446 760.7 c0 -0.5 0.5 -1.7 1 -2.7 0.7 -1.3 0.7 -2.1 0 -2.5 -0.6 -0.4 -0.8 -1.1 -0.4 -1.6 0.3 -0.5 0.9 -0.7 1.4 -0.4 0.5 0.3 1.1 -0.8 1.5 -2.5 0.4 -1.6 1.1 -3.2 1.5 -3.5 0.5 -0.3 0.1 1.9 -1 4.9 -1.9 5.6 -3.9 9.8 -4 8.3z"/>
  <path d="M286.6 750.1 c-0.4 -2.4 -0.5 -4.6 -0.2 -4.8 0.7 -0.7 1.9 6.3 1.4 7.9 -0.3 0.7 -0.8 -0.7 -1.2 -3.1z"/>
  <path d="M432 752.5 c0.1 -0.6 0.7 -2.1 1.6 -3.5 l1.5 -2.5 -0.7 2.5 c-0.7 2.6 -2.4 5.2 -2.4 3.5z"/>
  <path d="M435.1 745.5 c0.1 -2.1 2.6 -7.8 3 -6.9 0.3 0.5 -0.2 2.5 -1.2 4.4 -1 1.9 -1.8 3.1 -1.8 2.5z"/>
  <path d="M452.5 738.2 c0.3 -12.7 2.2 -26.5 3.5 -25.7 0.7 0.5 1.9 -4.1 3.3 -12.5 1.2 -7.3 0.5 6.4 -0.8 16.7 -1.3 9.6 -4.9 27.1 -5.9 28 -0.1 0.1 -0.1 -2.8 -0.1 -6.5z"/>
  <path d="M286.7 731 c0.3 -4.1 0.6 -8.6 0.7 -10 0.1 -2.9 0.2 -2.8 -11.7 -1.1 -11.4 1.8 -26.4 -0.7 -36.8 -5.9 -11.2 -5.7 -25.5 -18.4 -32 -28.3 -3.5 -5.4 -8.9 -17.1 -10.3 -22.7 -0.7 -2.3 -0.6 -2.4 0.8 -0.7 1 1.3 2.1 1.7 3.6 1.2 1.6 -0.5 2.3 -0.2 2.7 1.4 0.3 1.2 1.1 2.1 1.7 2.1 0.8 0 1.1 2 0.9 6.2 -0.4 9.4 0.9 12.5 8.2 20.3 5.3 5.7 6.7 6.7 7.5 5.5 0.9 -1.3 1.2 -1.3 2.1 0.3 1.2 2 8.8 2.4 10.6 0.6 1.3 -1.3 -1.8 -7.4 -4.3 -8.3 -0.9 -0.3 -1.4 -1.2 -1.1 -2 0.3 -0.7 0 -2 -0.6 -2.7 -0.7 -0.7 -0.1 -0.5 1.3 0.6 1.4 1.1 2.7 2.3 3 2.6 1.1 1.3 9.8 6.7 13.2 8.4 2.1 0.9 6.3 2.5 9.5 3.5 l5.8 1.8 -5.5 -0.1 c-3 0 -7 0.3 -8.7 0.7 -2.5 0.6 -3.3 0.4 -3.3 -0.6 0 -0.7 -1.6 -1.8 -3.5 -2.4 -4.1 -1.3 -5.6 -0.2 -5.9 4.6 -0.2 2.6 0.2 3.1 3.1 3.6 1.8 0.3 3.3 1.2 3.3 1.9 0 1.9 7 5.2 13.6 6.4 7.4 1.4 16.1 1.4 16.9 0 0.4 -0.6 2.4 -1 4.4 -0.8 5.4 0.3 6.1 0.1 6.1 -1.9 0 -1.1 0.7 -1.9 1.8 -1.9 2.3 0 4.3 1.7 3.5 3 -0.3 0.6 -0.1 0.7 0.6 0.3 2.2 -1.4 3.7 1.3 3.9 6.8 0.1 4.7 -0.2 5.8 -2.3 7.4 -1.3 1 -2.6 3.2 -2.8 4.8 -0.3 1.6 -0.3 -0.5 0 -4.6z"/>
  <path d="M438.1 736 c0 -0.8 0.4 -3.3 0.9 -5.5 1.7 -6.9 4 -23.5 5 -35.9 0.5 -6.5 1.2 -12.1 1.5 -12.4 0.3 -0.3 0.5 7.6 0.4 17.7 -0.2 14.7 -0.5 18.1 -1.6 17.7 -1.5 -0.6 -1.8 1 -0.3 1.9 1.5 0.9 1.2 3.6 -0.7 5.8 -1 1 -2.5 4.2 -3.4 7 -0.9 2.9 -1.7 4.5 -1.8 3.7z"/>
  <path d="M302.4 730 c0.2 -3.6 1.1 -9.7 2.1 -13.7 2.2 -9.6 1.8 -14.7 -1.3 -15.1 -1.2 -0.2 -1.9 -0.8 -1.6 -1.4 0.4 -0.6 -0.1 -0.8 -1.2 -0.5 -1.1 0.3 -5.6 1.4 -10.1 2.3 -4.6 1 -8.3 2.1 -8.3 2.5 0 0.6 -4.2 0.5 -7.5 -0.1 -0.8 -0.1 12.7 -3.2 25.3 -5.6 2.6 -0.5 3.8 -0.2 5.7 1.6 2.8 2.6 3.2 6.1 1.4 12.5 -0.6 2.2 -2 8.5 -3 14 -1.8 9.4 -1.8 9.6 -1.5 3.5z"/>
  <path d="M265.8 704.3 c1.2 -0.2 3 -0.2 4 0 0.9 0.3 -0.1 0.5 -2.3 0.4 -2.2 0 -3 -0.2 -1.7 -0.4z"/>
  <path d="M222 679 c-1.2 -1.6 -1.9 -3 -1.6 -3 0.2 0 1.4 1.4 2.6 3 1.2 1.7 1.9 3 1.6 3 -0.2 0 -1.4 -1.3 -2.6 -3z"/>
  <path d="M461.2 669 c-0.1 -7.5 -0.6 -14 -1.2 -14.6 -0.9 -0.9 0.5 -8.7 2 -10.9 0.3 -0.5 0.6 -1.7 0.5 -2.5 -0.1 -0.8 -0.3 -2.3 -0.3 -3.4 -0.1 -1.2 -0.7 -1.6 -1.8 -1.2 -0.8 0.3 -1.2 0.2 -0.9 -0.4 0.8 -1.4 4.2 -1.3 5.1 0.2 0.5 0.8 1.1 0.6 2 -0.6 0.7 -1 1.8 -1.5 2.4 -1.1 0.6 0.4 1.8 0.1 2.7 -0.7 0.9 -0.7 0.2 1.2 -1.5 4.4 -6.6 11.7 -7.5 15.3 -8.2 30.3 l-0.6 14 -0.2 -13.5z"/>
  <path d="M214.9 669.6 c-9 -9.1 -10.9 -12.6 -7.4 -14 0.8 -0.3 1.5 -1.3 1.5 -2.1 0 -0.9 -0.4 -1.3 -1 -1 -0.5 0.3 -1 -0.1 -1 -0.9 0 -3.7 3.5 -1.1 4.5 3.3 0.4 1.8 2 6.4 3.5 10.2 1.6 3.8 2.8 6.9 2.6 6.9 -0.2 0 -1.4 -1.1 -2.7 -2.4z"/>
  <path d="M445.7 658.5 c0.3 -3.3 1.6 -9.4 2.9 -13.5 2.3 -7.2 10.4 -22.6 15.2 -28.6 2.3 -2.9 2.3 -2.9 -0.1 1.6 -1.7 3.2 -2.4 5.8 -2.2 8.8 0.3 3.4 0 4.2 -1.4 4.2 -1.9 0 -7.4 10.8 -7.5 14.7 -0.1 2.2 -1.6 4.6 -1.6 2.5 0 -0.7 -0.4 -1.2 -1 -1.2 -0.5 0 -1 1.1 -1 2.5 0 1.4 -0.4 2.5 -1 2.5 -0.5 0 -1 1.9 -1.1 4.3 0 2.3 -0.4 5.1 -0.9 6.2 -0.6 1.3 -0.7 -0.2 -0.3 -4z"/>
  <path d="M194.5 655.5 c-0.3 -2.6 -0.4 -4.9 -0.2 -5.1 0.3 -0.3 0.8 1.6 1.2 4.1 0.3 2.6 0.4 4.9 0.2 5.1 -0.3 0.3 -0.8 -1.6 -1.2 -4.1z"/>
  <path d="M193.3 644.5 c0 -2.2 0.2 -3 0.4 -1.7 0.2 1.2 0.2 3 0 4 -0.3 0.9 -0.5 -0.1 -0.4 -2.3z"/>
  <path d="M193.3 634 c0 -3 0.2 -4.3 0.4 -2.7 0.2 1.5 0.2 3.9 0 5.5 -0.2 1.5 -0.4 0.2 -0.4 -2.8z"/>
  <path d="M207.7 631.3 c-0.3 -0.4 -1 -3.5 -1.7 -6.7 -1.1 -5.2 -1 -6 0.4 -6.8 0.9 -0.5 1.6 -1.5 1.6 -2.3 0 -0.8 1 -2 2.3 -2.6 1.2 -0.7 2.4 -1.5 2.7 -1.8 0.3 -0.3 1.3 -1.3 2.4 -2.1 1.5 -1.2 1.4 -0.6 -0.8 3.8 -1.4 2.8 -3.2 8.1 -4 11.8 -1.4 6.7 -2 8.1 -2.9 6.7z"/>
  <path d="M194.1 625.8 c-0.1 -3 4.6 -18.8 6 -20.2 0.5 -0.6 0.9 -1.7 0.9 -2.5 0 -2.8 10 -17.3 16.7 -24.2 6.7 -6.9 15.9 -13.7 24.9 -18.2 5.4 -2.7 16.1 -6.7 17.9 -6.7 1.9 0.1 -4 2.9 -9.5 4.6 -5.7 1.7 -11.7 5.4 -8.6 5.4 1.7 0 2 0.9 1 3.4 -0.4 1 -1.8 1.6 -4 1.6 -1.9 0 -3.4 0.5 -3.4 1 0 0.6 -1.1 1.6 -2.5 2.2 -1.4 0.6 -2.5 1.7 -2.5 2.4 0 0.7 -1 1.9 -2.2 2.6 -2.7 1.5 -2.9 1.5 -6.7 1.7 -3.4 0.1 -8 3.7 -10.1 7.8 -0.8 1.5 -2.7 4.4 -4.2 6.3 -3.1 3.8 -3.6 8.3 -1.4 11.5 2.5 3.7 1.6 6.1 -2.1 5.6 -0.7 -0.1 -1.3 0.3 -1.3 1 0 1.6 -4.6 6.9 -5.4 6.2 -0.3 -0.4 -0.6 -0.2 -0.6 0.3 -0.1 0.5 -0.7 3.2 -1.5 5.9 -1 3.6 -1.4 4.2 -1.4 2.3z"/>
  <path d="M480.4 621 c0.3 -0.8 0.9 -2.2 1.2 -3 0.3 -0.9 1.5 -2.2 2.7 -3 2.4 -1.5 2.6 -1.7 -2.3 4.5 -1.2 1.7 -2 2.3 -1.6 1.5z"/>
  <path d="M486.3 609.9 c0.2 -2 1.6 -5.2 3.2 -7.3 2.5 -3.3 2.7 -4 1.6 -5.8 -1.1 -1.8 -1.1 -2 0.3 -1.5 0.8 0.3 1.8 0.2 2.1 -0.3 0.4 -0.6 1.5 -1 2.6 -1 1 0 1.9 -0.4 1.9 -1 0 -0.5 -0.7 -0.7 -1.5 -0.4 -0.8 0.4 -1.5 0.2 -1.5 -0.4 0 -0.5 0.9 -1.2 2 -1.5 1.4 -0.3 2 -1.4 2 -3.1 0 -1.4 0.5 -2.6 1.1 -2.6 0.6 0 0.9 -0.6 0.6 -1.2 -0.6 -1.7 1.2 -5 2.2 -4.3 0.5 0.2 1.4 -0.2 2.1 -1 0.7 -0.8 2.1 -1.5 3.1 -1.5 1.4 0 1.9 -0.7 1.9 -2.6 0 -2 0.3 -2.4 1.3 -1.6 0.7 0.5 2.1 0.6 3.2 0.1 1.1 -0.4 2.4 -0.8 2.8 -0.8 0.4 -0.1 -3 4.5 -7.6 10.2 -4.6 5.6 -11.4 14.5 -15.2 19.7 -8.8 12.2 -8.5 11.9 -8.2 7.9z"/>
  <path d="M468.6 608.8 c2.5 -4.2 18.2 -25.6 24 -32.9 15.6 -19.5 18.9 -23.3 37.1 -43.4 18.5 -20.3 38.2 -40.4 35.1 -35.7 -0.9 1.3 -1.4 3.2 -1.1 4.2 0.3 1.2 -0.3 2.2 -1.5 2.9 -1.2 0.6 -2.6 2.7 -3.3 4.6 -1 2.7 -2.1 3.7 -4.9 4.5 -1.9 0.5 -4.1 1 -4.7 1 -0.7 0 -1.3 0.7 -1.3 1.5 0 0.8 0.4 1.5 0.9 1.5 0.5 0 0.4 1.1 -0.2 2.5 -1 2 -1.4 2.2 -2.2 1.2 -0.5 -0.8 -1.7 -1.2 -2.5 -0.9 -2.4 0.8 -5.2 4 -4.5 5.1 0.3 0.6 0.2 1.1 -0.3 1.1 -0.6 0 -1 0.6 -0.9 1.3 0.2 4.9 -0.4 6.6 -2.5 6.9 -1.2 0.2 -2.3 0.8 -2.5 1.4 -0.5 1.5 3 2.6 8.6 2.8 3.5 0.1 4.5 -0.2 5.3 -1.9 0.5 -1.1 2.3 -2.8 4 -3.8 2.1 -1.2 0 1.7 -6.7 9 -15.7 17.1 -15.5 17 -14.9 14.6 0.3 -1.2 1.6 -2.4 2.7 -2.7 2.1 -0.6 2.1 -0.7 0.4 -2 -1.6 -1.3 -1.6 -1.5 1.2 -4.5 5.5 -5.9 2.7 -10.2 -4.3 -6.6 -1.5 0.8 -3.5 1.5 -4.2 1.5 -1.7 0 -1.8 1.2 -0.2 2.8 1.5 1.5 0.3 1.6 -2.1 0.1 -1.5 -1 -2.4 -0.5 -5.9 3.3 -6.2 6.7 -8.2 9.5 -7.5 10.2 0.4 0.4 -0.3 0.9 -1.5 1.3 -1.2 0.3 -2.2 1.3 -2.2 2.3 0 1 -0.7 2 -1.5 2.4 -0.8 0.3 -1.2 1.2 -0.9 2 0.3 0.8 -0.1 2.5 -1 3.8 -0.9 1.2 -1.6 3.3 -1.6 4.6 0 1.2 -0.7 2.5 -1.5 2.8 -0.8 0.4 -1.2 1 -0.9 1.5 0.3 0.5 -0.6 0.9 -2 0.9 -2.5 0 -3.9 1.3 -4.3 4 -0.1 0.8 -1 2 -2 2.8 -1.5 1 -1.5 1.4 -0.4 2.1 1.1 0.7 0.9 1.1 -0.8 2 -1.1 0.7 -2.1 1.9 -2.1 2.7 0 1 -0.6 1.4 -1.5 1 -0.8 -0.3 -1.5 -0.1 -1.5 0.4 0 0.6 -0.8 1 -1.9 1 -2.3 0 -5.8 3.2 -9.9 9.3 -1.8 2.6 -3.5 4.7 -3.8 4.7 -0.3 0 -0.2 -0.6 0.2 -1.2z"/>
  <path d="M221 598.1 c0 -0.5 0.9 -1.1 2.1 -1.4 1.6 -0.4 1.8 -0.3 0.8 0.9 -1.3 1.6 -2.9 1.9 -2.9 0.5z"/>
  <path d="M226.3 593.3 c0.4 -0.6 0.4 -1.3 0 -1.6 -0.5 -0.2 -0.3 -0.3 0.3 -0.1 0.9 0.2 5.8 -4.2 6 -5.5 0.8 -5.8 3.3 -9 7.2 -9.1 4.6 0 8.5 -4.1 5 -5.2 -0.7 -0.3 -0.9 -1.2 -0.5 -2.2 0.7 -1.8 0.8 -1.8 2.6 -0.2 1.1 1 2.5 1.6 3.3 1.5 2.5 -0.3 3.9 0.1 3.4 1 -0.7 1 7.1 -1.2 10.4 -2.9 1.2 -0.6 2.8 -1 3.5 -0.8 0.8 0.2 -2.5 1.8 -7.3 3.7 -11.9 4.7 -21.6 10.4 -28.6 17 -3.3 3.1 -5.6 5.1 -5.3 4.4z"/>
  <path d="M518.3 569.5 c0 -0.8 0.6 -1.5 1.3 -1.5 0.7 0 2.5 -1.8 4.1 -4 1.5 -2.2 3.4 -4.2 4.2 -4.5 0.7 -0.3 -1 2.2 -3.9 5.5 -2.9 3.3 -5.3 6 -5.4 6 -0.2 0 -0.3 -0.7 -0.3 -1.5z"/>
  <path d="M271.5 567.1 c1.1 -0.5 4 -1.2 6.5 -1.6 5.6 -0.9 9.1 -3 8.4 -5 -0.4 -0.9 0 -1.5 0.7 -1.6 9.6 -0.5 17.2 -0.4 25.9 0.4 12.9 1.1 9.8 1.1 27 0.4 8.2 -0.3 13 -0.2 11 0.3 -1.9 0.4 -14 1.3 -26.8 1.9 -22.2 1.1 -40.7 3.1 -48.2 5.1 -4.3 1.2 -7.4 1.2 -4.5 0.1z"/>
  <path d="M357.5 557.5 c1.7 -0.8 4.8 -3.2 7 -5.4 2.2 -2.3 4.5 -4.1 5.3 -4.1 0.7 0 1.5 -0.7 1.9 -1.6 0.4 -1.1 0.8 -1.2 1.3 -0.4 0.5 0.8 1.2 0.1 2.1 -1.9 1.2 -2.7 1.5 -2.8 3 -1.6 1.2 1.2 2.6 1.3 6.1 0.7 4.3 -0.9 9 -3.6 19.1 -11.1 4.3 -3.2 6.1 -6.1 3.7 -6.1 -0.5 0 -1 -0.5 -1 -1.1 0 -0.6 0.7 -0.9 1.5 -0.5 0.8 0.3 1.5 0.1 1.5 -0.4 0 -0.6 -0.4 -1 -1 -1 -2.3 0 -0.8 -1.8 2 -2.3 1.7 -0.4 3 -1.3 3 -2.1 0 -0.9 1.3 -2.2 3 -3.1 1.9 -1 2.7 -2 2.3 -3.1 -0.7 -1.9 -2.8 -1.2 -2.7 1 0.2 1.3 -0.1 1.4 -1.1 0.6 -0.9 -0.8 -1.5 -0.8 -2 0 -0.3 0.6 -1.1 0.8 -1.6 0.5 -0.5 -0.4 -1.2 0.1 -1.5 0.9 -0.3 0.8 -1.5 1.8 -2.5 2.1 -1.4 0.5 -1.8 1.2 -1.4 2.6 0.4 1.1 0.2 1.9 -0.4 1.9 -0.6 0 -1.1 -0.9 -1.1 -2 0 -2.2 -1.5 -2.7 -2.6 -0.9 -0.3 0.6 -1.8 0.9 -3.2 0.6 -1.9 -0.4 -4.7 1 -11.6 5.7 -5 3.3 -9.7 6.7 -10.4 7.4 -0.7 0.6 -1.8 1.2 -2.3 1.2 -0.6 0 -0.7 0.5 -0.4 1 0.3 0.6 0 1 -0.7 1 -1 0 -1 0.2 0.1 0.9 3.5 2.2 -9.2 9.4 -16.2 9.3 -2.3 -0.1 -8.5 -0.5 -13.7 -1 l-9.5 -0.8 7.7 -0.2 c12.5 -0.3 21.9 -4.5 44.3 -19.5 38.7 -26 75.1 -57 117.3 -99.7 44.5 -45 75 -81 95.1 -111.7 2.9 -4.6 5.5 -8.3 5.8 -8.3 0.5 0 0.2 0.5 -5.9 9.9 -4.7 7.2 -5.8 10.6 -3.8 11.3 1.4 0.4 -1.1 5.6 -3 6.3 -0.8 0.3 -2.2 1.6 -3.1 2.8 -1.8 2.5 -3.2 11.7 -1.7 11.7 0.5 0 0.6 -0.4 0.3 -1 -0.3 -0.6 0.4 -1 1.8 -1 2.8 0 5.3 -2.4 6.2 -6.2 0.7 -2.8 2.7 -5 4.1 -4.7 2.4 0.6 6.3 -2.4 9.8 -7.5 3.9 -5.7 6.3 -7.9 3.1 -2.9 -2.9 4.5 -13.4 19.2 -19.9 27.8 -28 37 -80.2 92.3 -121.7 128.8 l-8.7 7.6 0.1 -6.4 c0 -3.6 -0.3 -6.8 -0.6 -7.2 -0.4 -0.3 -2.3 -0.2 -4.2 0.4 -2.2 0.7 -3.5 0.7 -3.5 0.1 0 -0.5 -0.5 -0.6 -1 -0.3 -0.6 0.4 -0.7 1.1 -0.4 1.7 0.4 0.7 0.2 0.8 -0.4 0.4 -1.4 -0.8 -11 7.6 -10.4 9.2 0.3 1.1 -1 1.7 -3.1 1.3 -1.1 -0.2 -3.7 2.5 -3.7 3.7 0 0.6 -0.6 1.3 -1.2 1.5 -1 0.4 -1 0.6 0 0.6 0.8 0.1 1.2 1.7 1.2 4.7 0 4.3 0.2 4.6 2.2 4.1 1.2 -0.3 2.9 -0.2 3.9 0.3 1.4 0.8 2.6 0.2 5.5 -2.5 2 -1.9 3.9 -3.5 4.1 -3.5 1.7 0 8.3 -6.7 8.3 -8.4 0 -1.7 0.2 -1.8 1 -0.6 0.6 1 0.4 2 -0.8 3.3 -1.6 1.8 -22.5 19 -28.3 23.2 -1.4 1.1 -7.1 5.4 -12.5 9.5 -20.6 15.6 -43.1 29.6 -54.5 34 -6.1 2.3 -10 2.7 -5.4 0.5z m74.3 -54.5 c-0.2 -0.8 -1.1 -1.6 -2.1 -1.8 -1.3 -0.3 -1.7 0.3 -1.7 2.7 0 2.9 0.2 3 2 1.9 1.1 -0.7 1.9 -2 1.8 -2.8z m38.9 -32.6 c1.5 -2.1 2.4 -2.4 4.6 -1.9 2.2 0.6 2.5 1 1.6 2.1 -2 2.5 0.5 1.5 4.4 -1.7 2 -1.7 3.7 -3.6 3.7 -4.3 0 -0.7 0.9 -2.1 1.9 -3 2.4 -2.2 3.5 -7 1.4 -6.2 -0.9 0.4 -1.3 0.1 -1.1 -0.6 0.3 -0.7 1.5 -1.5 2.8 -1.8 3.2 -0.8 5 -3.7 3 -5 -1 -0.6 -1.1 -1 -0.2 -1 0.6 0 1.2 -0.4 1.2 -0.8 0 -1.7 -3.3 -0.8 -3.8 1 -0.2 1 -0.9 1.8 -1.6 1.7 -3.4 -0.4 -5.4 0.4 -6.4 2.5 -0.7 1.6 -2.2 2.5 -5 2.9 -4.6 0.8 -6.8 3 -6.4 6.3 0.2 1.3 -0.1 2.4 -0.6 2.4 -0.8 0 -3.2 6.5 -3.2 8.9 0 1.9 1.7 1.2 3.7 -1.5z m43.1 -33.1 c4.4 -4.4 7.1 -8 6.8 -8.8 -0.7 -1.8 2.1 -7.3 4.5 -8.8 1 -0.6 1.9 -1.6 1.9 -2.1 0 -0.5 1.8 -2.6 3.9 -4.8 3.1 -3 4.7 -3.8 7.5 -3.8 2.8 0 3.9 -0.6 5.3 -2.7 1 -1.6 2.1 -3 2.5 -3.4 0.4 -0.3 1.1 -2.7 1.4 -5.5 0.5 -3.6 1.4 -5.5 3.3 -7.1 1.4 -1.2 3 -2.2 3.5 -2.3 0.5 0 1.8 -0.7 2.8 -1.6 1.3 -1.3 2.1 -1.4 3.1 -0.6 1 0.9 1.9 0.4 3.7 -2 1.4 -1.6 3.5 -4 4.6 -5.2 1.2 -1.1 3.8 -4.3 5.8 -6.9 2.8 -3.7 3.4 -5.2 2.6 -6.6 -0.6 -1.2 -0.5 -2.2 0.2 -2.9 1.4 -1.4 0.1 -3.2 -2.4 -3.2 -1.4 0 -1.8 -0.5 -1.4 -1.6 1.2 -3.2 -0.6 -3.4 -4.7 -0.5 -3.9 2.6 -8.3 7.1 -14.6 14.6 -3 3.5 -5.1 10.2 -4.4 13.8 0.5 2.5 0.3 2.7 -2.8 2.8 -1.9 0.1 -4.3 0.1 -5.4 0 -1.1 0 -2.9 1.1 -3.9 2.6 -1.1 1.4 -1.4 2.3 -0.7 1.8 0.8 -0.4 0.6 0.4 -0.4 1.9 -1 1.4 -2.5 2.6 -3.5 2.6 -1.1 0 -2.1 1.4 -3 4.3 -0.7 2.3 -2.2 5.2 -3.3 6.4 -1.1 1.3 -2 3.7 -2 5.4 0 2.6 -0.4 3 -2 2.5 -1.1 -0.3 -3.2 0.3 -4.7 1.4 -1.4 1 -3.8 2.2 -5.2 2.5 -1.5 0.4 -2.9 1.3 -3.2 2.2 -0.3 0.8 -1.1 1.1 -1.7 0.8 -0.6 -0.4 -1.3 0.1 -1.5 1.2 -0.3 1 -1.5 2.3 -2.6 2.8 -3.4 1.6 -8.9 10.3 -7.8 12.3 0.5 0.9 1.1 2.9 1.5 4.5 0.5 2.6 0.8 2.7 4.8 2.1 3.6 -0.5 5.3 -1.7 11.5 -8.1z m69.6 -84.9 c0.9 -2.2 0.8 -2.4 -0.9 -1.8 -0.8 0.4 -1.5 1.2 -1.5 2 0 1.9 1.6 1.8 2.4 -0.2z"/>
  <path d="M516.5 421 c-0.3 -0.5 0.4 -1.4 1.5 -2 1.6 -0.8 2 -0.8 2 0.4 0 1.6 -2.7 2.9 -3.5 1.6z"/>
  <path d="M262 554 c0 -1.2 5.6 -2.7 16.5 -4.5 12.7 -2 37.6 -4.8 38.2 -4.2 0.7 0.8 -9.6 2.7 -17.9 3.4 -6.9 0.5 -7.6 0.8 -6 2 1.5 1.3 1.4 1.4 -1.5 1 -1.8 -0.2 -3.4 0 -3.5 0.5 -0.2 0.5 -3.8 0.5 -8 0 -4.4 -0.5 -8.6 -0.4 -10 0.1 -4.9 1.9 -7.8 2.5 -7.8 1.7z"/>
  <path d="M320.8 545.3 c1.2 -0.2 3.2 -0.2 4.5 0 1.2 0.2 0.2 0.4 -2.3 0.4 -2.5 0 -3.5 -0.2 -2.2 -0.4z"/>
  <path d="M555.8 528.9 c0.6 -0.8 1.2 -3.9 1.3 -6.7 0.2 -4.8 0.4 -5.2 2.6 -5.2 1.6 0 3 -1.1 4.4 -3.4 2 -3.4 4.9 -5.5 4.9 -3.4 0 0.7 0.4 0.7 1.3 -0.1 0.8 -0.6 1.7 -0.8 2 -0.4 0.4 0.3 2.6 -1.4 4.9 -3.8 2.4 -2.4 5.2 -5 6.3 -5.8 1.1 -0.8 -3.4 4.1 -10.1 11 -6.6 6.8 -13.6 14 -15.4 15.9 -1.8 1.9 -2.8 2.8 -2.2 1.9z"/>
  <path d="M590.9 492.7 c0.8 -0.9 1.1 -2 0.8 -2.4 -0.4 -0.3 0 -1.5 0.8 -2.7 1.9 -2.6 1.9 -4 0 -3.3 -0.8 0.4 -1.7 0.2 -2 -0.3 -0.3 -0.5 1.4 -1.9 3.7 -3.1 4.3 -2.2 7.5 -5.6 7 -7.3 -0.2 -0.5 1.9 -0.6 4.7 -0.3 4.7 0.6 5.2 0.4 7.6 -2.4 1.4 -1.7 2.5 -3.5 2.5 -4 0 -0.6 0.4 -0.8 0.9 -0.5 1.1 0.7 5.4 -4 5.8 -6.5 0.2 -1.1 1.1 -3.1 2 -4.5 1.4 -2.2 1.4 -2.7 0.2 -3.5 -2 -1.3 -2.9 -1.1 -2.9 0.6 0 1.2 -1.4 1.5 -6.2 1.5 -6.3 0 -6.3 0.1 -12 5.6 -3.2 3.1 -5.8 6.3 -5.8 7.3 0 0.9 -0.6 2.3 -1.2 3 -1.1 1.1 -1 1.2 0.2 0.5 1.2 -0.7 1.2 -0.4 -0.2 1.6 -0.9 1.4 -2.3 2.4 -3.2 2.4 -0.9 -0.1 -2.5 1 -3.5 2.5 -1.2 1.6 -3.8 3.3 -6.3 4.1 -4 1.3 -11.1 7.3 -11.3 9.5 0 0.6 -0.4 1 -1 1 -0.5 0 -1.7 0.4 -2.5 0.9 -2.3 1.2 24 -24.6 36 -35.4 16.8 -15.2 25 -22.3 25 -21.6 0 0.4 -1.1 1.7 -2.6 2.9 -1.4 1.2 -2.6 2.9 -2.7 3.7 -0.2 0.8 -0.7 2.1 -1.2 2.9 -0.5 1 -0.4 1.6 0.3 1.9 0.7 0.2 1.2 0.9 1.2 1.6 0 2.5 3.7 4.8 6.2 4 1.3 -0.4 2.9 -0.9 3.6 -1 0.8 -0.1 2.2 -1 3.3 -2 1 -0.9 1.9 -1.5 1.9 -1.2 0 0.3 -2.6 2.7 -5.7 5.3 -3.2 2.6 -10.7 9.3 -16.7 14.8 -6 5.6 -11.4 10.7 -12 11.2 -0.6 0.6 -4.5 4.2 -8.6 8 -4.1 3.9 -6.8 6.2 -6.1 5.2z"/>
  <path d="M655.9 434.6 c2.1 -2.2 2.2 -2.6 0.8 -3.2 -1.2 -0.4 -1.4 -1.1 -0.7 -2.9 0.5 -1.3 0.6 -2.6 0.3 -2.9 -0.4 -0.3 -0.1 -0.6 0.5 -0.6 0.7 0 1.2 0.5 1.2 1 0 0.6 0.7 1 1.5 1 0.8 0 1.5 -0.4 1.5 -1 0 -0.5 0.8 -1 1.8 -1 1 0 2.3 -0.5 3 -1.2 1.5 -1.5 1.6 -5.4 0.2 -6.3 -0.6 -0.4 -0.8 -1.2 -0.4 -1.8 0.3 -0.7 0 -0.5 -0.8 0.4 -0.7 0.9 -1.8 1.4 -2.4 1.2 -0.7 -0.2 -2 0.6 -3.1 1.9 -1 1.3 -2.8 2.8 -3.8 3.4 -1.1 0.6 -2.5 2 -3.1 3.2 -0.9 1.9 -1.1 1.9 -2.1 0.3 -0.6 -0.9 -2.1 -1.6 -3.4 -1.6 -3 0.2 -7.9 3.3 -7.9 5.1 0 1.2 -1.3 1.9 -2.4 1.2 -0.8 -0.6 -4.5 3.5 -4 4.3 0.3 0.5 0 0.9 -0.6 0.9 -3.6 0 1.7 -4.7 25.5 -22.7 7.7 -5.9 14.6 -11 15.2 -11.6 0.8 -0.5 0.7 0.3 -0.3 2.2 -0.9 1.7 -1.9 2.9 -2.4 2.6 -0.4 -0.3 -1 0.2 -1.4 1 -0.3 0.8 -0.1 1.7 0.4 2 0.6 0.4 1 1.4 1 2.4 0 2.1 6.8 5.1 9 4.1 0.8 -0.4 2.6 -1.3 4 -2 3.8 -1.9 1.7 -0.2 -14.5 12 -8.2 6.2 -13.9 10.1 -12.6 8.6z"/>
  <path d="M686.6 411.6 c0.3 -0.8 1.3 -1.6 2.2 -1.9 0.9 -0.3 3.2 -1.5 5 -2.7 1.7 -1.2 3.2 -2 3.2 -1.7 0 0.2 -2.5 2 -5.5 4 -3 2 -5.2 3 -4.9 2.3z"/>
  <path d="M699.5 403 c1 -1.1 3 -2.6 4.4 -3.3 1.9 -0.9 3 -2.6 4 -6.4 l1.4 -5.2 4.1 0.1 c5.3 0.1 9.8 -1.1 11.2 -3 1.2 -1.6 5 -0.9 3.9 0.7 -0.3 0.6 1.2 1.1 3.2 1.3 3.5 0.3 3.3 0.4 -3.3 2.1 -4.8 1.2 -11 4.1 -19 8.8 -6.5 3.8 -10.9 6 -9.9 4.9z"/>
  <path d="M675.6 401.1 c-0.6 -0.9 10.9 -9.1 23.5 -16.9 12 -7.3 27.9 -13.2 35.4 -13.1 l2 0 -2 0.9 c-1.1 0.5 -3.1 0.9 -4.5 0.9 -1.4 0.1 -3.6 0.8 -5 1.6 -1.4 0.8 -4.5 2.4 -7 3.6 -2.5 1.3 -5.1 3.1 -5.7 4 -2.4 3.3 -10 6.9 -14 6.7 -3.1 -0.1 -5.4 0.9 -11.6 4.9 -4.2 2.7 -7.4 5.3 -7 5.8 0.5 0.4 0.2 0.5 -0.4 0.1 -0.8 -0.4 -1.3 -0.1 -1.3 0.8 0 1.7 -1.5 2.1 -2.4 0.7z"/>
  <path d="M744.3 387.3 c1.5 -0.2 3.7 -0.2 5 0 1.2 0.2 0 0.4 -2.8 0.4 -2.7 0 -3.8 -0.2 -2.2 -0.4z"/>
  <path d="M760.3 386.3 c0.9 -0.2 2.5 -0.2 3.5 0 0.9 0.3 0.1 0.5 -1.8 0.5 -1.9 0 -2.7 -0.2 -1.7 -0.5z"/>
  <path d="M767.5 386 c1.1 -0.5 3.6 -0.9 5.6 -0.9 4.9 -0.1 10 -2 12 -4.5 1.4 -1.7 1.9 -1.8 3.2 -0.8 2.1 1.8 3 0 1.7 -3.3 -0.7 -1.7 -1.4 -2.4 -2.2 -1.8 -0.7 0.4 -2.1 0.6 -3 0.5 -1 -0.2 -1.8 0.2 -1.8 0.8 0 0.7 -0.6 0.8 -1.9 0 -1.1 -0.5 -3.4 -1 -5.1 -1 -1.8 0 -4.6 -0.6 -6.3 -1.4 -1.8 -0.8 -4.5 -1.8 -6.2 -2.3 -2.5 -0.8 -1.4 -1.1 6.7 -1.7 11.2 -0.7 29.7 -3.2 34.8 -4.6 1.9 -0.6 4 -1 4.5 -1 1.6 0.1 -3.8 2.9 -5.5 3 -0.9 0 -3.1 1.3 -5 3 -1.9 1.6 -4 2.9 -4.6 3 -1.9 0 -3.7 2.8 -3 4.6 0.4 1.2 1 1.3 1.9 0.6 0.9 -0.8 6 -0.9 8.7 -0.2 0.3 0.1 4.3 0.1 8.9 0.1 4.6 0 8.2 0.1 8 0.3 -1.6 1.4 -24.1 5.8 -36.1 7.1 -16.4 1.7 -18.2 1.7 -15.3 0.5z"/>
  <path d="M822 376.5 c1.4 -0.8 3.4 -1.4 4.5 -1.4 1.4 0 1 0.4 -1.4 1.4 -4.3 1.9 -6.4 1.9 -3.1 0z"/>
  <path d="M831 373.5 c1.4 -0.8 3 -1.4 3.5 -1.4 0.6 0 -0.1 0.6 -1.5 1.4 -1.4 0.8 -2.9 1.4 -3.5 1.4 -0.5 0 0.1 -0.6 1.5 -1.4z"/>
  <path d="M745 371 c3.5 -1.1 13.1 -1.1 10.5 0 -1.1 0.5 -4.5 0.8 -7.5 0.8 -4.2 0 -4.9 -0.2 -3 -0.8z"/>
  <path d="M839 369.8 c1.9 -1.2 3.7 -2.3 3.9 -2.5 0.2 -0.2 0.5 -1.3 0.6 -2.5 0.1 -1.5 1.7 -2.9 5.1 -4.7 3.5 -1.9 5.4 -3.7 6.7 -6.5 1.7 -3.5 2.1 -3.8 4.9 -3.2 1.7 0.3 3.5 0.6 4.1 0.6 1 0 -0.6 1.5 -9.8 9.4 -5 4.3 -16.5 11.6 -18.1 11.6 -0.5 0 0.7 -1 2.6 -2.2z"/>
  <path d="M817.4 361.4 c3.8 -1.3 7.1 -2.2 7.3 -2 0.5 0.5 -11.1 4.6 -12.8 4.5 -0.8 0 1.7 -1.1 5.5 -2.5z"/>
  <path d="M828.6 358.1 c-0.4 -0.6 1.7 -2.2 4.6 -3.7 5.6 -2.9 14.9 -9.6 18.5 -13.5 1.1 -1.3 4.4 -5.7 7.2 -9.8 2.8 -4.1 5.1 -7.1 5.1 -6.7 0 0.4 -1.3 2.7 -3 5 -1.6 2.4 -3 4.9 -3.2 5.7 -0.2 0.7 -1.6 2.4 -3.1 3.7 -2.4 2.1 -2.8 3.1 -2.5 6.6 0.2 3.7 0 4.1 -2.2 4.4 -1.4 0.2 -4.1 1.9 -6 3.7 -2.4 2.3 -4.7 3.4 -7.5 3.7 -2.2 0.3 -4.7 0.8 -5.6 1.2 -1 0.4 -2 0.3 -2.3 -0.3z"/>
  <path d="M870.2 343 c6.2 -8.8 8.8 -14.3 8.8 -18.2 0 -1.8 0.7 -5.3 1.5 -7.7 1.1 -3 1.3 -4.7 0.5 -5.6 -1.2 -1.5 1.3 -4.1 3 -3 0.6 0.3 1 -0.4 1.1 -1.7 0 -1.3 0.4 -3.2 0.9 -4.3 1.7 -3.9 -0.3 7.9 -2.7 16.4 -2.5 8.7 -11.1 24.9 -15.3 28.6 -1.2 1.1 -0.2 -0.9 2.2 -4.5z"/>
  <path d="M868.5 321 c-0.4 -0.6 -0.4 -2.3 -0.1 -3.8 0.4 -2.4 0.3 -2.3 -0.9 0.6 -2.3 5 -2.6 3.8 -0.5 -2.3 1 -3 2.2 -7.5 2.6 -10.1 l0.7 -4.7 1.3 3.2 c0.7 1.7 1.8 3.1 2.3 3.1 0.7 0 0.6 1 0 3 -0.6 1.7 -1.5 3 -2 3 -0.5 0 -0.9 1.5 -0.9 3.3 0 3.9 -1.4 6.5 -2.5 4.7z"/>
  <path d="M615.1 316.3 c1.2 -2.1 2.6 -4.2 3.1 -4.7 1.3 -1.6 0.9 -4.6 -0.7 -4.6 -2.9 0 -1.7 -2.7 3.3 -7.3 2.1 -2 2.2 -2.2 0.6 -3.4 -1.9 -1.4 -1.2 -2.8 1.4 -2.8 1.9 0 5.2 -6.2 4.5 -8.2 -0.3 -0.7 0.6 -1.7 2 -2.2 2.8 -1.1 3.7 -2.9 3.8 -7.4 0 -3.6 1.7 -8.5 1.8 -5.5 0.2 4 -3 16.8 -5.5 22.3 -3.1 6.8 -15.2 27.5 -16 27.5 -0.3 0 0.4 -1.7 1.7 -3.7z"/>
  <path d="M608.8 296 c6.6 -11.8 9.2 -18.1 9.3 -23.2 0 -3.3 0.2 -3.8 0.9 -2.3 0.5 1.1 0.9 3.2 0.9 4.8 0.1 1.7 0.6 2.7 1.6 2.7 2.3 0 1.8 2.8 -1.3 6.8 -1.6 2 -3.4 5.6 -4.1 7.9 -1.1 4 -6.4 9.4 -7.8 8 -0.3 -0.4 -1.4 0.4 -2.4 1.6 -1.1 1.2 0.2 -1.6 2.9 -6.3z"/>
  <path d="M870 284.6 c0 -1.4 -1.1 -6 -2.5 -10.3 -7.2 -22.7 -25 -39.9 -47 -45.3 -3.6 -0.9 -3.5 -0.9 2.1 -0.5 5.5 0.4 6.2 0.2 6.7 -1.5 0.7 -2.5 5.7 -2.8 5.7 -0.4 0 3.2 7 8.4 11.4 8.4 1.7 0 2.4 0.4 2 1.3 -0.8 2.1 3.3 10.7 5.1 10.7 0.8 0 1.5 0.6 1.5 1.3 0 0.7 1.3 2.8 2.8 4.7 1.6 1.9 3.2 4.3 3.5 5.4 0.7 1.7 0.9 1.8 2.6 0.2 1.9 -1.7 3.1 -1.2 3.1 1.4 0 3 2.2 4.2 4.3 2.2 1.9 -1.6 2 -1.6 0.8 0.6 -0.8 1.5 -1.1 5.1 -0.9 9.3 0.2 3.8 0.1 6.9 -0.2 6.9 -0.3 0 -0.4 1.8 -0.2 4 0.2 2.2 0.1 4 -0.2 4 -0.3 0 -0.6 -1.1 -0.6 -2.4z"/>
  <path d="M884.5 278.5 c-0.3 -2.6 -0.4 -4.9 -0.2 -5.1 0.3 -0.3 0.8 1.6 1.2 4.1 0.3 2.6 0.4 4.9 0.2 5.1 -0.3 0.3 -0.8 -1.6 -1.2 -4.1z"/>
  <path d="M882.2 270 c-0.6 -1.1 -1.2 -2.7 -1.2 -3.5 0 -0.9 -0.4 -1.3 -1 -1 -0.5 0.3 -1 0.2 -1 -0.3 0 -0.5 -1.2 -1.5 -2.6 -2.2 -1.9 -1.1 -2.4 -1.9 -2 -3.6 0.8 -2.9 -0.2 -5.4 -1.9 -4.8 -2.3 0.9 -2.9 -1.8 -0.7 -3.5 l2.1 -1.6 -3.9 -6 c-3.4 -5 -3.5 -5.4 -0.9 -2.5 4.1 4.7 9.2 14 12.4 22.4 2.6 7 3 10.2 0.7 6.6z"/>
  <path d="M618.3 259.5 c0 -4.4 0.2 -6.1 0.4 -3.7 0.2 2.3 0.2 5.9 0 8 -0.2 2 -0.4 0.1 -0.4 -4.3z"/>
  <path d="M634.2 253.5 c0 -1.6 0.3 -3.9 0.8 -5 0.8 -1.8 0.9 -1.8 0.8 0.5 0 1.4 -0.4 3.6 -0.8 5 -0.8 2.4 -0.8 2.4 -0.8 -0.5z"/>
  <path d="M634.5 238.8 c-1.3 -11 -0.6 -26.9 1.3 -27.6 1.9 -0.6 1.4 -1.9 -1 -2.6 -2.2 -0.6 -2.2 -0.7 -0.5 -2 2.1 -1.6 2.2 -3.2 0.1 -4 -0.8 -0.3 -1.3 -1 -0.9 -1.5 0.3 -0.6 1.2 -0.8 2 -0.4 2 0.7 5.2 -3.2 6.9 -8.7 0.7 -2.5 2.7 -7.5 4.4 -11.2 1.6 -3.7 3.3 -8 3.7 -9.7 0.4 -1.7 1 -2.9 1.3 -2.7 0.4 0.2 0.8 -1.2 0.9 -3.1 0.2 -4.1 1.3 -5.7 5.3 -7.3 2.6 -1.1 3 -1.8 3 -5.1 0 -3.9 0 -3.9 3.9 -3.9 4.6 0 7.3 -0.9 6.5 -2.1 -0.3 -0.5 0.2 -0.9 1 -0.9 1.3 0 10.4 -4.1 17.6 -7.9 2 -1.1 2.5 -4.2 0.8 -5.2 -0.9 -0.6 -0.3 -0.9 1.8 -0.9 2 0 3.4 -0.6 3.8 -1.6 0.5 -1.4 1.8 -1.6 8.7 -1 6.9 0.6 8.4 0.5 10 -1 1.7 -1.6 1.9 -1.6 1.9 -0.1 0 2.1 1.6 2.1 5.5 0.1 1.6 -0.8 2.6 -1.2 2.3 -0.8 -0.4 0.4 0.2 1.8 1.2 3.2 1.1 1.3 2 3 2 3.6 0 1.5 15.6 8 17 7.1 0.5 -0.3 1 -0.2 1 0.3 0 2.2 3.5 2.2 5.1 0.1 1 -1.4 2.2 -2 3.3 -1.6 2.3 0.9 2 2.6 -0.4 2 -1.6 -0.4 -1.9 -0.2 -1.4 1.1 0.3 0.9 1.1 1.6 1.6 1.6 0.5 0 1.8 1 2.7 2.2 1.3 1.5 2.8 2.1 5.4 2 l3.7 -0.1 -0.5 5.3 c-0.5 4.6 -0.2 5.8 1.8 8.3 1.2 1.5 3.1 4 4 5.5 1 1.6 2.1 2.7 2.5 2.7 2 -0.3 3.2 0.3 3.2 1.6 0 0.8 0.9 1.5 2 1.5 2.4 0 2.7 1.5 0.4 2.4 -0.8 0.3 -1.2 1 -0.9 1.6 0.4 0.6 1.1 0.7 1.7 0.4 1 -0.6 2.9 -1 7.1 -1.3 1.4 -0.1 1.7 -0.6 1.1 -2.3 -0.3 -1.3 -1.3 -3 -2 -3.9 -0.8 -0.8 -1.4 -3.7 -1.4 -6.2 0 -2.6 -0.4 -4.7 -0.9 -4.7 -0.5 0 -1.3 -1.2 -1.9 -2.7 -1.5 -4.4 -4.4 -6.9 -8.6 -7.6 -3.6 -0.6 -8.2 -3.4 -7.1 -4.5 1.3 -1.3 -1.8 -4.2 -4.5 -4.2 -2.3 0 -3 -0.4 -3 -2 0 -1.1 -0.7 -2.3 -1.5 -2.6 -1.1 -0.5 -1.3 -1 -0.5 -1.9 0.8 -1 0.2 -1.8 -2.7 -3.5 -6.5 -3.7 -7.4 -4.1 -8.2 -3.5 -0.5 0.2 -1.4 -0.2 -2.1 -1 -0.7 -0.8 -2.1 -1.5 -3.1 -1.5 -1 0 -3 -0.5 -4.5 -1.2 -2.4 -1.1 -2.8 -1 -4.8 1.5 -2.1 2.6 -2.2 2.6 -3.4 0.6 -0.7 -1.1 -1.6 -1.7 -2.1 -1.5 -1.6 1.1 -7 -1.5 -6.4 -3 0.4 -1.1 -0.7 -1.4 -5.5 -1.4 -8.4 0 -15.3 1.1 -14.5 2.3 0.4 0.6 -0.4 0.7 -2.2 0.3 -1.8 -0.5 -3.5 -0.2 -5.1 0.9 -1.4 0.9 -2.9 1.3 -3.3 1 -1.4 -0.8 -4.1 0.6 -4.1 2.1 0 1.2 -0.4 1.2 -2 0.4 -4.2 -2.3 -25.2 11.4 -23.7 15.4 0.3 0.7 -0.9 2.4 -2.6 3.7 -4.5 3.5 -8.7 8.2 -8.7 9.6 0 0.7 -1.7 2 -3.7 3 -2.1 0.9 -4.4 2.4 -5.1 3.3 -1.9 2.2 -0.6 -0.3 3 -5.6 9 -13.4 24.4 -25.8 39.1 -31.5 13 -5 20.4 -6.2 34.7 -5.6 15.2 0.7 23.8 2.9 35.4 9 22.7 12.1 36.3 28.8 41.7 51.2 2 8.5 2.5 14.8 0.9 11 -0.5 -1.1 -0.9 -3.2 -0.9 -4.7 -0.1 -1.7 -0.7 -2.8 -1.5 -2.8 -0.9 0 -1.2 -0.8 -0.8 -2.5 0.4 -2.5 -1.1 -3.5 -2.3 -1.5 -0.3 0.5 -1.9 1 -3.5 1 -3.7 0 -4.2 1 -2.5 4.4 1.4 2.6 1.3 2.9 -1 4.8 -2.2 1.7 -2.4 2.5 -2.3 9.4 0.1 4.4 -0.2 7.8 -0.9 8.2 -0.5 0.4 -1.5 2.5 -2.1 4.7 l-1.1 4 0.3 -3.5 c0.2 -1.9 0.9 -6.8 1.7 -10.7 2.3 -12.9 -1.1 -24.7 -11.2 -38.4 -6 -8.1 -13.3 -14.5 -22 -19.2 -25.3 -13.8 -54.9 -10 -76.7 9.9 -18.2 16.6 -27.7 41.8 -30.8 81.4 -0.4 4.7 -0.8 8.6 -0.9 8.8 -0.2 0.2 -0.6 -2.1 -1 -5z"/>
  <path d="M619.2 237.5 c0 -1.1 0.4 -3.1 0.8 -4.5 l0.8 -2.5 0 2.5 c0 1.4 -0.3 3.4 -0.8 4.5 l-0.9 2 0.1 -2z"/>
  <path d="M863.5 235.6 c-3.3 -2.2 -8.7 -2.6 -11 -0.8 -1.1 0.9 -1.5 1 -0.8 0.3 1.5 -1.8 -4.2 -7.5 -10.3 -10.2 -2.4 -1.1 -4.2 -2.4 -3.9 -2.8 0.2 -0.5 -0.4 -2 -1.5 -3.4 -2 -2.5 -4.2 -3.2 -16.4 -5.2 -2.1 -0.3 -3.6 -0.8 -3.3 -1.1 0.7 -0.8 13.7 1.6 18.7 3.4 9.2 3.4 17.6 8.6 26.5 16.6 4.9 4.5 5.8 5.9 2 3.2z"/>
  <path d="M774 231.1 c-1.1 -2.2 -1.1 -7.2 0 -11.6 0.6 -2.3 0.8 -1.6 0.7 3.3 0 3.5 0.5 6.8 1.1 7.4 0.7 0.7 4.2 1.1 8.4 1.1 5.3 -0.1 6.5 0.1 4.3 0.7 -1.6 0.4 -5.3 0.8 -8.2 0.9 -4.2 0.1 -5.4 -0.3 -6.3 -1.8z"/>
  <path d="M796.5 229.6 c2.8 -0.8 6.8 -1.4 9 -1.4 l4 0.1 -4 0.7 c-2.2 0.4 -6.2 1 -9 1.4 l-5 0.5 5 -1.3z"/>
  <path d="M620.5 223.8 c1.1 -9.1 3.5 -23 5.2 -29.8 1.9 -7.9 7.4 -23.3 8 -22.6 0.2 0.2 -0.7 3.7 -2.2 7.8 -2.1 5.7 -2.6 8.4 -2.2 12.5 0.5 4.3 0.2 5.5 -1.1 6.3 -1.4 0.8 -1.4 1.1 -0.3 1.9 1 0.7 1.1 1.3 0.1 3 -1.3 2.5 -1.1 11 0.3 12.8 1.1 1.5 -1.5 2.8 -3.7 2 -1 -0.4 -1.7 1 -2.5 5.4 -1.5 7.3 -2.4 7.7 -1.6 0.7z"/>
  <path d="M660 219 c-5.3 -5.3 1.4 -31.3 11.6 -45.2 7.4 -10.1 24.3 -19.2 37.8 -20.5 6.1 -0.5 6.3 -0.5 8.9 2.7 3.2 3.7 3.5 7.8 0.9 11.1 -1.4 1.7 -3.4 2.4 -8.1 3 -7.9 0.9 -17.5 5.6 -22.9 11.2 -6.7 7 -10.7 16 -13.3 29.6 -0.7 3.5 -2.1 7.3 -3.1 8.3 -2.5 2.5 -9.2 2.4 -11.8 -0.2z m15 -14.1 c1 -4.2 2.3 -8.6 2.9 -9.8 0.7 -1.2 0.9 -3.1 0.6 -4.1 -0.4 -1.3 0.3 -3.2 2 -5.4 1.7 -2.3 2.4 -4.2 2.1 -5.4 -0.5 -1.5 0 -2.1 2.1 -2.8 1.5 -0.4 3.3 -0.8 3.8 -0.8 0.6 -0.1 1.4 -0.7 1.8 -1.3 0.4 -0.7 1.8 -1.3 3 -1.3 1.3 0 3.4 -0.8 4.7 -1.7 2.7 -1.9 3.4 -2.1 9.5 -2.9 7.5 -1 8.3 -1.3 8.9 -4 0.7 -2.8 -1.5 -6.4 -3.9 -6.4 -0.7 0 -2.4 -0.9 -3.8 -2 -2.3 -1.8 -3 -1.9 -7.6 -0.8 -2.8 0.6 -5.1 1.5 -5.1 2 0 0.4 -0.9 0.8 -2.1 0.8 -4.8 0 -12.9 7.1 -12.9 11.3 0 0.7 -1 1.7 -2.2 2.2 -1.2 0.6 -2.5 2.2 -2.9 3.7 -0.4 1.5 -2.3 4.3 -4.3 6.3 -2 1.9 -3.6 3.9 -3.6 4.4 0 0.5 -0.9 1.1 -2 1.4 -1.2 0.3 -2 1.4 -2 2.5 0 1.2 -0.4 2.3 -0.9 2.7 -0.6 0.3 -1 1.3 -1 2.3 0 0.9 -0.4 3.6 -0.9 5.9 -0.5 2.3 -0.7 4.5 -0.4 4.8 0.7 0.6 1.1 2.5 1.9 7.3 0.5 3.2 1.8 4.2 2.5 2 0.3 -0.8 1.1 -0.7 2.8 0.5 2.2 1.6 2.4 1.5 3.7 -1.1 0.8 -1.5 2.3 -6.1 3.3 -10.3z"/>
  <path d="M790.7 217.7 c-2.7 -1.1 -2.7 -1.2 -2.1 -7.2 0.3 -3.3 1.3 -6.5 2 -7.1 0.8 -0.7 2.1 -3.1 2.8 -5.5 1.7 -5.4 1.9 -2.6 0.6 5.9 -1.3 7.8 -0.6 10.6 2.3 9.9 1.2 -0.3 5.4 -0.8 9.2 -1.1 l7 -0.5 -4.8 1.5 c-2.7 0.9 -5.7 2.4 -6.8 3.5 -2.1 2.1 -5.8 2.3 -10.2 0.6z"/>
  <path d="M635.5 167.3 c0.8 -1.8 1.8 -3.3 2 -3.3 1 0 0.4 1.6 -1.6 4 l-2 2.5 1.6 -3.2z"/>
 </g>
 <g fill="#101010">
  <path d="M352 812 c-2.7 -0.6 -2.9 -0.8 -1 -0.8 1.4 -0.1 4.3 0.3 6.5 0.7 3.3 0.7 3.5 0.9 1 0.9 -1.6 -0.1 -4.6 -0.4 -6.5 -0.8z"/>
  <path d="M376.5 812 c1.7 -0.4 4.4 -0.8 6 -0.8 l3 0 -3 0.8 c-1.6 0.4 -4.3 0.8 -6 0.8 l-3 0 3 -0.8z"/>
  <path d="M387.5 810 c1.1 -0.5 2.7 -0.9 3.5 -0.9 0.9 0 0.8 0.4 -0.5 0.9 -1.1 0.5 -2.7 0.9 -3.5 0.9 -0.9 0 -0.8 -0.4 0.5 -0.9z"/>
  <path d="M339 808.4 l-2.5 -1.5 2.5 0.7 c1.4 0.3 3.2 1 4 1.5 1.3 0.7 1.3 0.8 0 0.8 -0.8 0 -2.6 -0.6 -4 -1.5z"/>
  <path d="M372.8 796.3 c1.2 -0.2 3 -0.2 4 0 0.9 0.3 -0.1 0.5 -2.3 0.4 -2.2 0 -3 -0.2 -1.7 -0.4z"/>
  <path d="M384 794.5 c4.6 -1.8 6.4 -1.7 2.5 0 -1.6 0.8 -3.7 1.4 -4.5 1.4 -0.8 0 0.1 -0.7 2 -1.4z"/>
  <path d="M328.4 784.8 l-1.9 -2.1 2.8 1.8 c2.8 1.8 3.3 2.5 1.9 2.5 -0.5 0 -1.7 -1 -2.8 -2.2z"/>
  <path d="M418 774.5 c1.9 -2.2 4.5 -5.3 5.8 -7 l2.3 -3 -1.8 3.3 c-0.9 1.8 -3.5 4.9 -5.7 7 l-4 3.7 3.4 -4z"/>
  <path d="M306 758.9 c-0.6 -1.1 -1 -2.5 -0.7 -3.2 0.2 -0.6 0.9 0.3 1.5 2.1 1.2 3.6 0.8 4.2 -0.8 1.1z"/>
  <path d="M302.6 748.8 c-0.3 -1.3 -0.5 -3.4 -0.5 -4.8 0.1 -1.5 0.5 -0.7 1 1.9 0.9 4.7 0.6 6.8 -0.5 2.9z"/>
  <path d="M453 740.4 c0 -1 0.5 -2.6 1 -3.4 0.8 -1.1 0.9 -0.7 0.4 1.5 -0.8 3.7 -1.4 4.5 -1.4 1.9z"/>
  <path d="M438.1 735.5 c0 -0.5 0.6 -3.2 1.3 -6 0.8 -2.7 1.4 -4.1 1.4 -3 0 2.1 -2.5 10.7 -2.7 9z"/>
  <path d="M302.6 729.6 c0.3 -3.3 1 -6.9 1.4 -8 1.3 -3.2 1.1 0.1 -0.5 7.4 l-1.5 6.5 0.6 -5.9z"/>
  <path d="M455.2 732 c0 -1.4 0.4 -3.6 0.8 -5 l0.8 -2.5 0 2.5 c0 1.4 -0.4 3.6 -0.8 5 l-0.8 2.5 0 -2.5z"/>
  <path d="M441.2 720.5 c0 -1.1 0.5 -5.6 1.3 -10 0.7 -4.6 1.3 -6.5 1.3 -4.5 0.1 1.9 -0.5 6.4 -1.2 10 -0.8 3.6 -1.4 5.6 -1.4 4.5z"/>
  <path d="M258.3 719.3 c0.9 -0.2 2.5 -0.2 3.5 0 0.9 0.3 0.1 0.5 -1.8 0.5 -1.9 0 -2.7 -0.2 -1.7 -0.5z"/>
  <path d="M271.1 719.6 c0.2 -0.2 3.3 -0.6 6.9 -0.9 3.9 -0.3 5.5 -0.2 4 0.3 -2.5 0.8 -11.7 1.3 -10.9 0.6z"/>
  <path d="M458.1 712.4 c0 -2.1 0.4 -4.8 0.9 -5.9 0.5 -1.2 0.6 0.1 0.3 3.5 -0.7 6.6 -1.3 7.9 -1.2 2.4z"/>
  <path d="M277.5 703 c1.7 -0.4 3.9 -0.8 5 -0.8 1.6 0 1.5 0.2 -0.5 0.8 -1.4 0.4 -3.6 0.8 -5 0.8 -2.2 0 -2.2 -0.1 0.5 -0.8z"/>
  <path d="M306 702 c-0.6 -1.1 -2.5 -2.4 -4.3 -2.9 -3 -0.9 -3 -0.9 -0.6 -1 2.4 -0.1 4.5 1.5 6.3 4.7 0.4 0.6 0.5 1.2 0.2 1.2 -0.3 0 -1 -0.9 -1.6 -2z"/>
  <path d="M246.4 699.5 c-1 -0.8 -1.4 -1.4 -0.9 -1.4 0.6 0 1.9 0.6 2.9 1.4 1.1 0.8 1.5 1.5 1 1.5 -0.6 0 -1.9 -0.7 -3 -1.5z"/>
  <path d="M444.3 692.5 c0 -2.7 0.2 -3.8 0.4 -2.2 0.2 1.5 0.2 3.7 0 5 -0.2 1.2 -0.4 0 -0.4 -2.8z"/>
  <path d="M460.2 693 c0 -1.9 0.2 -2.7 0.5 -1.7 0.2 0.9 0.2 2.5 0 3.5 -0.3 0.9 -0.5 0.1 -0.5 -1.8z"/>
  <path d="M211.4 691.8 c-3 -3.4 -4.7 -5.8 -4.2 -5.8 0.3 0 1.9 1.8 3.7 4 3.4 4.3 3.8 5.5 0.5 1.8z"/>
  <path d="M204 681 c-1.1 -2.2 -1.8 -4 -1.5 -4 0.2 0 1.4 1.8 2.5 4 1.1 2.2 1.8 4 1.5 4 -0.2 0 -1.4 -1.8 -2.5 -4z"/>
  <path d="M445.2 682 c0 -1.9 0.2 -2.7 0.5 -1.7 0.2 0.9 0.2 2.5 0 3.5 -0.3 0.9 -0.5 0.1 -0.5 -1.8z"/>
  <path d="M214 664.9 c-0.6 -1.1 -1 -2.5 -0.8 -3 0.2 -0.5 0.8 0.4 1.5 2.1 1.3 3.4 0.9 4 -0.7 0.9z"/>
  <path d="M210.6 655.4 c-0.4 -1.4 -0.5 -2.8 -0.3 -3.1 0.3 -0.2 0.8 0.8 1.1 2.3 0.4 1.4 0.5 2.8 0.3 3.1 -0.3 0.2 -0.8 -0.8 -1.1 -2.3z"/>
  <path d="M446.2 655 c0 -1.9 0.2 -2.7 0.5 -1.7 0.2 0.9 0.2 2.5 0 3.5 -0.3 0.9 -0.5 0.1 -0.5 -1.8z"/>
  <path d="M461.4 654.5 c0 -1.4 0.7 -2.7 1.5 -3 0.9 -0.4 1.1 0 0.7 1.1 -0.3 0.8 -0.6 2.2 -0.6 3 0 0.8 -0.4 1.4 -0.9 1.4 -0.5 0 -0.8 -1.1 -0.7 -2.5z"/>
  <path d="M447 650.5 c-0.1 -3.3 7.6 -21.2 8.7 -20.1 0.3 0.3 0 1.2 -0.7 2 -0.6 0.9 -2.7 5.5 -4.6 10.3 -1.8 4.8 -3.3 8.3 -3.4 7.8z"/>
  <path d="M460 621.9 c0 -0.3 1.1 -2 2.5 -3.9 1.4 -1.9 2.5 -3 2.5 -2.4 -0.1 1 -5 7.3 -5 6.3z"/>
  <path d="M483 617 c1.2 -1.6 2.4 -3 2.6 -3 0.3 0 -0.4 1.4 -1.6 3 -1.2 1.7 -2.4 3 -2.6 3 -0.3 0 0.4 -1.3 1.6 -3z"/>
  <path d="M491.9 604.3 c0.6 -1 2.2 -3.1 3.6 -4.8 2 -2.3 1.9 -1.8 -0.6 1.8 -3.2 4.6 -4.9 6.3 -3 3z"/>
  <path d="M477.2 596.4 c5.9 -8.6 29.6 -38.4 30.4 -38.4 0.7 0 -5.8 8.4 -6.8 8.8 -0.5 0.2 -0.8 0.7 -0.8 1.2 0 0.5 -0.9 1.9 -2 3.2 -5.4 6.4 -13.6 16.9 -19.1 24.4 -3.4 4.6 -6.3 8.4 -6.6 8.4 -0.2 0 2 -3.4 4.9 -7.6z"/>
  <path d="M507.9 583.2 c1.7 -2.2 3.8 -4.5 4.8 -5.3 1 -0.8 -0.2 1 -2.6 3.9 -5.1 6 -6.8 7.1 -2.2 1.4z"/>
  <path d="M221 575.6 c1.4 -1.5 3.9 -3.7 5.5 -4.9 3.6 -2.4 2.6 -1.4 -3.5 3.9 -3 2.5 -3.7 2.9 -2 1z"/>
  <path d="M248 576.4 c0 -0.7 9.2 -4.5 9.7 -4.1 0.2 0.2 -1.9 1.4 -4.7 2.5 -2.7 1.1 -5 1.9 -5 1.6z"/>
  <path d="M231 567.8 c1.7 -1.8 13 -8.3 13 -7.5 0 0.3 -2.1 1.8 -4.7 3.3 -2.7 1.5 -5.9 3.4 -7.3 4.2 -2.3 1.4 -2.4 1.4 -1 0z"/>
  <path d="M272.5 567 c1.1 -0.5 2.9 -0.8 4 -0.8 1.6 0 1.5 0.2 -0.5 0.8 -3.4 1.1 -6 1.1 -3.5 0z"/>
  <path d="M288.9 564 c1.9 -0.4 5.9 -1.1 9 -1.4 4.2 -0.4 4.8 -0.3 2.2 0.4 -1.9 0.4 -5.9 1.1 -9 1.4 -4.2 0.4 -4.8 0.3 -2.2 -0.4z"/>
  <path d="M316.3 561.3 c0.9 -0.2 2.5 -0.2 3.5 0 0.9 0.3 0.1 0.5 -1.8 0.5 -1.9 0 -2.7 -0.2 -1.7 -0.5z"/>
  <path d="M332.8 560.3 c1.7 -0.2 4.7 -0.2 6.5 0 1.7 0.2 0.3 0.4 -3.3 0.4 -3.6 0 -5 -0.2 -3.2 -0.4z"/>
  <path d="M247.4 558.5 c2.2 -1.7 4 -2 3.2 -0.6 -0.3 0.5 -1.6 1.1 -2.8 1.4 -2.2 0.6 -2.2 0.5 -0.4 -0.8z"/>
  <path d="M254 556.1 c0.8 -0.5 2.6 -1.2 4 -1.5 l2.5 -0.7 -2.5 1.5 c-1.4 0.9 -3.2 1.5 -4 1.5 -1.3 0 -1.3 -0.1 0 -0.8z"/>
  <path d="M511.4 553 c5.3 -6.1 6.3 -7.1 3.9 -3.5 -1.2 1.7 -3.4 4.1 -4.9 5.5 -1.9 1.7 -1.5 1 1 -2z"/>
  <path d="M367 554.5 c1.4 -0.8 3 -1.4 3.5 -1.4 0.6 0 -0.1 0.6 -1.5 1.4 -1.4 0.8 -2.9 1.4 -3.5 1.4 -0.5 0 0.1 -0.6 1.5 -1.4z"/>
  <path d="M279.3 549.3 c0.9 -0.2 2.5 -0.2 3.5 0 0.9 0.3 0.1 0.5 -1.8 0.5 -1.9 0 -2.7 -0.2 -1.7 -0.5z"/>
  <path d="M540.6 544.9 c2.1 -2.5 4.1 -4.4 4.4 -4.2 0.2 0.2 -1.6 2.3 -4 4.6 l-4.4 4.2 4 -4.6z"/>
  <path d="M294.8 547.3 c1.2 -0.2 3.2 -0.2 4.5 0 1.2 0.2 0.2 0.4 -2.3 0.4 -2.5 0 -3.5 -0.2 -2.2 -0.4z"/>
  <path d="M302 546.9 c0 -0.5 2.1 -0.9 4.7 -0.9 2.5 0 4.4 0.2 4.2 0.4 -1 0.8 -8.9 1.3 -8.9 0.5z"/>
  <path d="M521.9 541.5 c2.2 -2.7 6.8 -7.9 10.2 -11.5 4.6 -4.9 5.1 -5.3 2 -1.5 -2.2 2.8 -6.8 7.9 -10.2 11.5 -4.7 5 -5.2 5.3 -2 1.5z"/>
  <path d="M354 542.5 c2.5 -0.8 8.9 -3.9 14.2 -6.9 5.4 -2.9 9.5 -5 9.3 -4.6 -0.6 0.9 -9.2 5.9 -17.5 10.2 -3 1.5 -6.6 2.7 -8 2.7 -1.8 0 -1.2 -0.4 2 -1.4z"/>
  <path d="M551.5 533 c2.7 -2.7 5.1 -5 5.4 -5 0.3 0 -1.7 2.3 -4.4 5 -2.7 2.8 -5.1 5 -5.4 5 -0.3 0 1.7 -2.2 4.4 -5z"/>
  <path d="M379.4 529.1 c0.4 -0.6 1.6 -1.6 2.8 -2.2 1.5 -0.8 1.8 -0.8 1.4 0 -0.4 0.6 -1.6 1.6 -2.8 2.2 -1.5 0.8 -1.8 0.8 -1.4 0z"/>
  <path d="M408.4 529.2 c0.3 -0.6 2.9 -2.7 5.7 -4.7 2.8 -2 4.8 -3.2 4.5 -2.7 -0.3 0.6 -2.9 2.7 -5.7 4.7 -2.8 2 -4.8 3.2 -4.5 2.7z"/>
  <path d="M385 525.6 c0 -0.3 2.8 -2.4 6.3 -4.6 4.6 -3.1 5.3 -3.4 2.7 -1.1 -3.8 3.2 -9 6.5 -9 5.7z"/>
  <path d="M540 521.2 c0 -0.5 1 -1.7 2.2 -2.8 l2.1 -1.9 -1.8 2.8 c-1.8 2.8 -2.5 3.3 -2.5 1.9z"/>
  <path d="M565.3 518.2 c2 -2.1 3.7 -4.4 3.7 -5.2 0 -0.7 0.3 -1 0.7 -0.7 0.3 0.4 1.3 0.1 2.2 -0.5 0.9 -0.7 -0.9 1.4 -3.9 4.5 -3 3.1 -5.7 5.7 -5.9 5.7 -0.3 0 1.2 -1.7 3.2 -3.8z"/>
  <path d="M425.1 516.3 c1.3 -1.7 3.3 -3.4 4.3 -3.7 1 -0.2 1.5 -0.2 1 0.2 -0.5 0.4 -2.4 2.1 -4.3 3.7 l-3.5 3 2.5 -3.2z"/>
  <path d="M398 516.6 c0 -0.2 3.8 -3.1 8.3 -6.4 6.5 -4.6 8.1 -5.4 7.3 -3.6 -0.6 1.3 -2.1 2.6 -3.3 2.9 -1.3 0.3 -3.7 1.8 -5.5 3.3 -3 2.6 -6.8 4.7 -6.8 3.8z"/>
  <path d="M433.8 509.9 c1.2 -1.4 1.9 -2.9 1.5 -3.4 -0.5 -0.4 -0.2 -0.5 0.5 -0.1 0.8 0.5 2.1 0.1 3.3 -1 1 -0.9 1.9 -1.5 1.9 -1.2 0 0.3 -2.1 2.3 -4.7 4.4 -2.8 2.2 -3.8 2.7 -2.5 1.3z"/>
  <path d="M560.5 500.1 c6.6 -6.6 12.2 -12.1 12.4 -12.1 0.7 0 -20.1 21.3 -22.4 22.9 -1.1 0.7 3.4 -4.1 10 -10.8z"/>
  <path d="M417.5 502.3 c3.5 -3.5 27.1 -22.8 25.3 -20.7 -0.9 1 -4.4 4.2 -7.7 6.9 -3.4 2.8 -6.1 5.6 -6.1 6.3 0 0.6 -0.5 1.2 -1 1.2 -0.6 0 -3.7 1.9 -6.8 4.1 -3.1 2.3 -4.8 3.3 -3.7 2.2z"/>
  <path d="M591.1 492.2 c3.5 -3.7 7.5 -7.6 8.9 -8.6 1.4 -1 -1.3 2 -6 6.8 -4.6 4.7 -8.7 8.6 -8.9 8.6 -0.2 0 2.4 -3 6 -6.8z"/>
  <path d="M464 484.5 c1.9 -1.9 3.6 -3.5 3.9 -3.5 0.3 0 -1 1.6 -2.9 3.5 -1.9 1.9 -3.6 3.5 -3.9 3.5 -0.3 0 1 -1.6 2.9 -3.5z"/>
  <path d="M578 482.8 c0 -0.2 4.1 -4.4 9 -9.1 5 -4.8 9 -8.3 9 -7.7 0 0.5 -1.4 2.2 -3.2 3.7 -1.8 1.6 -5.8 5.2 -9 8.2 -3.2 3 -5.8 5.2 -5.8 4.9z"/>
  <path d="M469.3 480.4 c0.9 -1.5 14.7 -13.8 14.7 -13.1 0 0.2 -3.5 3.5 -7.7 7.3 -4.2 3.8 -7.4 6.4 -7 5.8z"/>
  <path d="M446.5 478.3 c4.6 -4.6 23.4 -21.3 24 -21.3 0.4 0 -1.6 2.1 -4.4 4.6 -2.8 2.5 -5.1 5.2 -5.1 6 0 0.8 -0.6 1.4 -1.3 1.4 -0.7 0 -4.4 2.5 -8.2 5.7 -3.9 3.1 -6.1 4.7 -5 3.6z"/>
  <path d="M606.1 478.3 c0 -0.5 1.4 -1.9 3.2 -3.2 l3.2 -2.5 -2.9 3.2 c-3.1 3.3 -3.6 3.7 -3.5 2.5z"/>
  <path d="M488.1 462.4 c1.3 -1.4 3.8 -3.5 5.4 -4.7 1.7 -1.1 0.8 0.1 -2 2.6 -5.4 5.1 -7.3 6.3 -3.4 2.1z"/>
  <path d="M624 461.5 c1.9 -1.9 3.6 -3.5 3.9 -3.5 0.3 0 -1 1.6 -2.9 3.5 -1.9 1.9 -3.6 3.5 -3.9 3.5 -0.3 0 1 -1.6 2.9 -3.5z"/>
  <path d="M601 460.5 c1.9 -1.9 3.6 -3.5 3.9 -3.5 0.3 0 -1 1.6 -2.9 3.5 -1.9 1.9 -3.6 3.5 -3.9 3.5 -0.3 0 1 -1.6 2.9 -3.5z"/>
  <path d="M614.5 448.6 c4.4 -4.2 8.4 -7.6 8.8 -7.6 1.1 0 -4.9 5.8 -11.3 10.8 -4.3 3.3 -3.7 2.6 2.5 -3.2z"/>
  <path d="M483 445.1 c5.8 -5.7 12.3 -11.9 14.5 -13.9 2.3 -2.1 -1.4 1.7 -8 8.3 -6.6 6.6 -13.2 12.9 -14.5 13.9 -1.4 1 2.2 -2.7 8 -8.3z"/>
  <path d="M500.3 451 c0.7 -1 2.7 -2.9 4.3 -4.1 2.2 -1.7 2 -1.3 -1.1 1.9 -4.2 4.5 -5.4 5.3 -3.2 2.2z"/>
  <path d="M519.6 432 c1.7 -1.9 5.3 -5.7 8 -8.5 13.1 -13.3 21.4 -22.7 20.8 -23.8 -0.5 -0.9 -0.3 -0.9 0.6 0 1.1 1 -0.9 3.5 -9.8 13 -11.5 12.3 -24.8 25.3 -19.6 19.3z"/>
  <path d="M503 425.7 c0 -0.5 7.5 -8.6 16.8 -18.1 9.2 -9.4 20 -21 24.1 -25.6 4.1 -4.6 7.2 -7.8 7 -7.2 -0.9 2.7 -47.9 52.6 -47.9 50.9z"/>
  <path d="M647 421.7 c0 -0.4 4.5 -4 10 -8.2 5.5 -4.2 10 -7.1 10 -6.6 0 0.6 -1 1.6 -2.2 2.2 -1.9 1 -6.6 4.4 -16.5 12.2 -0.7 0.5 -1.3 0.7 -1.3 0.4z"/>
  <path d="M554.9 394.2 c2.3 -2.7 4.1 -5.4 4.1 -6.2 0 -0.7 0.3 -1 0.7 -0.7 0.3 0.4 1.3 0.1 2.2 -0.6 0.9 -0.6 -1.1 1.8 -4.3 5.6 -3.2 3.7 -6 6.7 -6.3 6.7 -0.2 0 1.4 -2.2 3.6 -4.8z"/>
  <path d="M681 396.6 c0 -0.2 1.4 -1.4 3 -2.6 1.7 -1.2 3 -1.9 3 -1.6 0 0.2 -1.3 1.4 -3 2.6 -1.6 1.2 -3 1.9 -3 1.6z"/>
  <path d="M713.7 394 c0.6 -2.1 1.8 -2.6 2.8 -1.1 0.3 0.6 -0.3 1.5 -1.4 2 -1.6 0.9 -1.8 0.8 -1.4 -0.9z"/>
  <path d="M718 392.3 c0 -0.9 9.5 -4.4 11 -4.1 1 0.2 -1.1 1.2 -4.6 2.4 -3.5 1.1 -6.4 1.9 -6.4 1.7z"/>
  <path d="M688.5 391.2 c1.4 -1.6 19.7 -12.4 20.1 -11.9 0.3 0.2 -3.3 2.6 -7.8 5.2 -4.6 2.6 -9.4 5.5 -10.8 6.3 -1.4 0.9 -2 1.1 -1.5 0.4z"/>
  <path d="M734.7 387.3 c1.8 -0.2 5 -0.2 7 0 2.1 0.2 0.7 0.4 -3.2 0.4 -3.8 0 -5.5 -0.2 -3.8 -0.4z"/>
  <path d="M775.3 385.3 c1.5 -0.2 3.7 -0.2 5 0 1.2 0.2 0 0.4 -2.8 0.4 -2.7 0 -3.8 -0.2 -2.2 -0.4z"/>
  <path d="M785.8 384.3 c1.2 -0.2 3 -0.2 4 0 0.9 0.3 -0.1 0.5 -2.3 0.4 -2.2 0 -3 -0.2 -1.7 -0.4z"/>
  <path d="M797.5 382.5 c2.8 -0.7 6.1 -1.3 7.5 -1.3 1.4 0 0.4 0.6 -2.5 1.3 -2.7 0.7 -6.1 1.3 -7.5 1.3 -1.4 0 -0.4 -0.6 2.5 -1.3z"/>
  <path d="M810 380 c0.8 -0.5 2.4 -1 3.4 -1 2.6 0 1.8 0.6 -1.9 1.4 -2.2 0.5 -2.6 0.4 -1.5 -0.4z"/>
  <path d="M712 377.5 c1.4 -0.8 3 -1.4 3.5 -1.4 0.6 0 -0.1 0.6 -1.5 1.4 -1.4 0.8 -2.9 1.4 -3.5 1.4 -0.5 0 0.1 -0.6 1.5 -1.4z"/>
  <path d="M823 376.5 c1.4 -0.8 3 -1.4 3.5 -1.4 0.6 0 -0.1 0.6 -1.5 1.4 -1.4 0.8 -2.9 1.4 -3.5 1.4 -0.5 0 0.1 -0.6 1.5 -1.4z"/>
  <path d="M719 374.6 c1.4 -0.9 3.2 -1.5 4 -1.5 1.3 0 1.3 0.1 0 0.8 -0.8 0.5 -2.6 1.2 -4 1.5 l-2.5 0.7 2.5 -1.5z"/>
  <path d="M739.3 371.3 c1.5 -0.2 3.7 -0.2 5 0 1.2 0.2 0 0.4 -2.8 0.4 -2.7 0 -3.8 -0.2 -2.2 -0.4z"/>
  <path d="M760.3 370.3 c1.5 -0.2 3.9 -0.2 5.5 0 1.5 0.2 0.2 0.4 -2.8 0.4 -3 0 -4.3 -0.2 -2.7 -0.4z"/>
  <path d="M784.5 368.4 c5.5 -0.7 10.5 -1.2 11 -1 1.7 0.5 -11.9 2.6 -16.6 2.5 -3 -0.1 -1.1 -0.6 5.6 -1.5z"/>
  <path d="M803.1 365.6 c0.2 -0.2 1.8 -0.6 3.4 -1 2.2 -0.5 2.6 -0.4 1.5 0.4 -1.4 0.9 -5.9 1.5 -4.9 0.6z"/>
  <path d="M847.4 365.1 c0.4 -0.6 1.6 -1.6 2.8 -2.2 1.5 -0.8 1.8 -0.8 1.4 0 -0.4 0.6 -1.6 1.6 -2.8 2.2 -1.5 0.8 -1.8 0.8 -1.4 0z"/>
  <path d="M588.5 353.9 c4.4 -5.7 9.7 -12.8 11.8 -15.6 2.2 -2.9 4.2 -5.3 4.4 -5.3 1 0 -21.2 29.6 -22.9 30.7 -0.7 0.3 2.4 -4 6.7 -9.8z"/>
  <path d="M813 363.2 c0.8 -0.5 2.6 -1.3 4 -1.6 1.7 -0.5 2 -0.4 1 0.2 -0.8 0.5 -2.6 1.3 -4 1.6 -1.7 0.5 -2 0.4 -1 -0.2z"/>
  <path d="M561 362.3 c0 -0.5 1.2 -2 2.8 -3.4 l2.7 -2.4 -2.5 3 c-1.4 1.7 -2.6 3.2 -2.7 3.4 -0.2 0.2 -0.3 0 -0.3 -0.6z"/>
  <path d="M829 356.9 c0.8 -0.5 3.3 -1.9 5.5 -3.1 3.1 -1.6 3.7 -1.7 2.6 -0.4 -0.7 0.9 -1.9 1.6 -2.6 1.6 -0.7 0 -1.8 0.7 -2.5 1.5 -0.7 0.8 -2 1.5 -2.9 1.5 -1.4 0 -1.4 -0.2 -0.1 -1.1z"/>
  <path d="M570.4 350.7 c2.7 -3.1 5.1 -5.7 5.3 -5.7 0.7 0 -7.6 9.8 -9 10.7 -0.7 0.4 1 -1.9 3.7 -5z"/>
  <path d="M842 349.1 c1.9 -1.6 3.7 -2.8 3.9 -2.5 0.5 0.5 -2.4 2.9 -5.4 4.5 -1.1 0.6 -0.4 -0.3 1.5 -2z"/>
  <path d="M869.9 344.5 c0.5 -1.1 1.7 -2.9 2.6 -4 l1.6 -2 -1 2 c-0.5 1.1 -1.7 2.9 -2.6 4 l-1.6 2 1 -2z"/>
  <path d="M585 331.6 c1.9 -2.6 3.9 -5 4.4 -5.4 0.5 -0.3 -0.6 1.6 -2.4 4.2 -1.9 2.6 -3.9 5 -4.4 5.4 -0.5 0.3 0.6 -1.6 2.4 -4.2z"/>
  <path d="M881.2 324 c0 -0.8 0.6 -3.1 1.3 -5 0.7 -1.9 1.3 -2.8 1.3 -2 0 0.8 -0.6 3.1 -1.3 5 -0.7 1.9 -1.3 2.8 -1.3 2z"/>
  <path d="M884.2 313.5 c0 -1.1 0.4 -3.3 0.8 -5 0.7 -2.7 0.8 -2.7 0.8 -0.5 0 1.4 -0.4 3.6 -0.8 5 -0.6 2 -0.8 2.1 -0.8 0.5z"/>
  <path d="M886.3 294 c0 -4.1 0.2 -5.8 0.4 -3.7 0.2 2 0.2 5.4 0 7.5 -0.2 2 -0.4 0.3 -0.4 -3.8z"/>
  <path d="M609.6 294.5 c3.4 -6.2 4.1 -7 4.1 -4.9 0 1 -0.7 2.5 -1.6 3.3 -0.9 0.9 -2.4 2.8 -3.4 4.1 -1 1.4 -0.6 0.3 0.9 -2.5z"/>
  <path d="M630.6 288 c0.3 -1.4 1.1 -3.2 1.6 -4 0.6 -1 0.7 -0.7 0.2 1 -0.3 1.4 -1.1 3.2 -1.6 4 -0.6 1 -0.7 0.7 -0.2 -1z"/>
  <path d="M633.1 277.4 c0 -1.6 0.4 -3.8 0.9 -4.9 0.6 -1.3 0.7 -0.5 0.3 2.5 -0.7 5.3 -1.3 6.6 -1.2 2.4z"/>
  <path d="M618.3 270.5 c0 -3.8 0.2 -5.3 0.4 -3.2 0.2 2 0.2 5.2 0 7 -0.2 1.7 -0.4 0.1 -0.4 -3.8z"/>
  <path d="M865.2 267.8 c-1 -3 -1 -3.1 0.3 -1.4 1.3 1.7 2.1 4.6 1.2 4.6 -0.1 0 -0.8 -1.5 -1.5 -3.2z"/>
  <path d="M881.6 266.4 c-0.9 -2.6 -1.4 -4.9 -1.2 -5.1 0.2 -0.2 1.1 1.7 2 4.3 0.9 2.6 1.4 4.9 1.2 5.1 -0.2 0.2 -1.1 -1.7 -2 -4.3z"/>
  <path d="M875.5 252 c-0.9 -1.6 -1.3 -3 -1.1 -3 0.3 0 1.2 1.4 2.1 3 0.9 1.7 1.3 3 1.1 3 -0.3 0 -1.2 -1.3 -2.1 -3z"/>
  <path d="M849.5 244.8 l-4 -4.3 4.3 4 c3.9 3.6 4.7 4.5 3.9 4.5 -0.2 0 -2.1 -1.9 -4.2 -4.2z"/>
  <path d="M839.7 237.3 c-2 -1.4 -3.5 -2.8 -3.3 -3 0.2 -0.3 2.3 0.9 4.7 2.6 5.1 3.7 4 4 -1.4 0.4z"/>
  <path d="M831.5 232.4 l-3 -1.4 3 0.6 c3.1 0.6 4.1 1.1 3.4 1.8 -0.2 0.2 -1.7 -0.2 -3.4 -1z"/>
  <path d="M774 231 c-0.6 -1.2 -0.9 -3.8 -0.7 -5.8 l0.4 -3.7 0.1 4.2 c0.2 3.1 0.8 4.6 2.4 5.7 1.8 1.3 1.9 1.6 0.6 1.6 -1 0 -2.2 -0.9 -2.8 -2z"/>
  <path d="M783.5 232 c1.1 -0.5 2.9 -0.9 4 -0.9 l2 0 -2 0.9 c-1.1 0.5 -2.9 0.9 -4 0.9 l-2 0 2 -0.9z"/>
  <path d="M856.6 229.1 c-0.9 -1 -5.5 -4 -10.2 -6.6 -8.8 -5 -11.2 -7.4 -2.9 -3 5.9 3.2 12.7 7.8 14.4 9.9 1.9 2.2 0.8 2 -1.3 -0.3z"/>
  <path d="M635.8 228.1 c-0.4 -1.4 -0.3 -3 0.1 -3.5 0.5 -0.6 1.2 -3.8 1.6 -7.1 0.5 -3.3 1 -5.3 1.2 -4.5 0.1 0.8 -0.3 5.1 -1 9.5 -0.9 6 -1.4 7.4 -1.9 5.6z"/>
  <path d="M621.3 220.5 c0 -2.7 0.2 -3.8 0.4 -2.2 0.2 1.5 0.2 3.7 0 5 -0.2 1.2 -0.4 0 -0.4 -2.8z"/>
  <path d="M660 219 c-1.1 -1.1 -1.9 -3 -1.9 -4.2 0.1 -2.1 0.2 -2.1 0.6 -0.3 1.3 5.1 8.6 7.3 12.5 3.8 1 -0.9 1.8 -1.1 1.8 -0.5 0 3.4 -9.9 4.3 -13 1.2z"/>
  <path d="M672.8 214.3 c0.5 -1 1.2 -3.5 1.6 -5.7 0.4 -2.1 0.9 -3.6 1.2 -3.3 0.8 0.7 -1.7 10.7 -2.7 10.7 -0.6 0 -0.6 -0.7 -0.1 -1.7z"/>
  <path d="M622.1 212.9 c-0.1 -2.1 3.5 -19.4 4.9 -23.4 1.3 -4 0.9 -1.2 -1.9 12.5 -2.4 11.4 -2.9 13.4 -3 10.9z"/>
  <path d="M798.1 213.6 c0.2 -0.2 3.1 -0.6 6.4 -0.9 3.8 -0.4 5.3 -0.3 4 0.3 -1.9 0.8 -11.3 1.4 -10.4 0.6z"/>
  <path d="M658.1 210 c0 -1.4 0.6 -4.7 1.3 -7.5 1.8 -6.4 1.9 -3.8 0.1 4 -0.7 3.3 -1.4 4.9 -1.4 3.5z"/>
  <path d="M792.6 206.6 c0.3 -3.3 1 -6.9 1.5 -8 1 -2.4 0.2 4.8 -1.2 10.4 -0.6 2.6 -0.7 2 -0.3 -2.4z"/>
  <path d="M639.6 204 c0.5 -5.4 1 -6.8 1.8 -5.9 0.3 0.3 -0.2 2.9 -0.9 5.9 l-1.4 5.5 0.5 -5.5z"/>
  <path d="M776.2 207.5 c0 -1.1 0.4 -3.1 0.8 -4.5 0.6 -2 0.8 -2.1 0.8 -0.5 0 1.1 -0.4 3.1 -0.8 4.5 -0.6 2 -0.8 2.1 -0.8 0.5z"/>
  <path d="M642.4 193.5 c0.4 -1.6 1.2 -3.4 1.7 -4 0.5 -0.5 0.4 0.6 -0.2 2.5 -1.5 4.5 -2.4 5.4 -1.5 1.5z"/>
  <path d="M778.3 192.5 c0 -2.2 0.2 -3 0.4 -1.7 0.2 1.2 0.2 3 0 4 -0.3 0.9 -0.5 -0.1 -0.4 -2.3z"/>
  <path d="M679 193.4 c0 -0.9 4 -7.4 4.6 -7.4 0.2 0 -0.6 1.8 -1.7 4 -2 3.8 -2.9 4.8 -2.9 3.4z"/>
  <path d="M664 187.6 c0 -1.4 5.9 -11.6 9.2 -15.8 1.6 -2.1 4.4 -4.7 6.1 -5.9 2.8 -1.9 2.6 -1.6 -1.3 2.7 -2.5 2.6 -4.7 5.1 -5 5.4 -1 1 -5.8 8.6 -7.4 11.5 -0.8 1.7 -1.5 2.6 -1.6 2.1z"/>
  <path d="M645.1 185.5 c0 -0.5 0.6 -2.1 1.4 -3.5 0.8 -1.4 1.4 -2 1.4 -1.5 0 0.6 -0.6 2.1 -1.4 3.5 -0.8 1.4 -1.4 2.1 -1.4 1.5z"/>
  <path d="M776.7 183.8 c-0.4 -1.4 -0.9 -3.4 -1.3 -4.5 -0.3 -1 0.2 -0.5 1.1 1 0.9 1.6 1.5 3.6 1.3 4.5 -0.3 1.2 -0.6 0.9 -1.1 -1z"/>
  <path d="M687 181.6 c3.4 -3.7 10.1 -8.6 11.7 -8.6 0.5 0 -0.9 1.1 -3.1 2.4 -2.1 1.3 -5.7 4.1 -8 6.3 l-4.1 3.8 3.5 -3.9z"/>
  <path d="M773.1 174.4 c-1.2 -2.7 -1.1 -2.8 0.4 -1.2 1 0.9 1.6 2.1 1.3 2.8 -0.2 0.7 -1 -0.1 -1.7 -1.6z"/>
  <path d="M790.1 172.9 c-1.4 -4.2 -0.7 -4.9 0.9 -0.9 0.7 1.7 1 3.3 0.8 3.6 -0.3 0.3 -1.1 -0.9 -1.7 -2.7z"/>
  <path d="M700 172.4 c0 -0.7 5.2 -2.5 5.7 -2 0.2 0.2 -1 0.8 -2.6 1.4 -1.7 0.6 -3.1 0.9 -3.1 0.6z"/>
  <path d="M711.5 169.3 c1.1 -0.2 3 -0.6 4.2 -0.8 1.4 -0.3 2.6 -1.7 3.3 -4.1 1.6 -4.7 0 -7.7 -4.9 -9.8 -2.9 -1.2 -3.2 -1.5 -1.3 -1.5 3.5 -0.1 8.2 5.1 8.2 8.9 0 4.3 -3.9 8 -8.2 7.9 -1.9 -0.1 -2.5 -0.3 -1.3 -0.6z"/>
  <path d="M767.5 164.8 c-1.6 -2.4 -2.2 -3.8 -1.4 -3.1 1.5 1.2 5.3 7.3 4.6 7.3 -0.2 0 -1.7 -1.9 -3.2 -4.2z"/>
  <path d="M787.5 167.9 c0.4 -1 0.2 -2 -0.4 -2.4 -0.6 -0.3 -1.1 -1.4 -1.1 -2.3 0.1 -1.1 0.6 -0.7 1.6 1.2 1.2 2.1 1.3 3.1 0.4 4 -0.8 0.8 -1 0.7 -0.5 -0.5z"/>
  <path d="M654 167.9 c0 -0.3 1.1 -2 2.5 -3.9 1.4 -1.9 2.5 -3 2.5 -2.4 -0.1 1 -5 7.3 -5 6.3z"/>
  <path d="M683.5 163 c0.7 -1.1 6.5 -4.3 6.5 -3.6 0 0.2 -1.6 1.3 -3.6 2.5 -1.9 1.2 -3.2 1.6 -2.9 1.1z"/>
  <path d="M664.5 155.1 c2.8 -2.9 5.9 -5.7 7 -6.3 2.3 -1.2 2.2 -1.2 -6 6.2 l-6 5.4 5 -5.3z"/>
  <path d="M757.5 153.3 c-2.7 -2.5 -7.1 -5.9 -9.7 -7.5 -5.6 -3.4 -6.4 -4.7 -1.3 -1.9 4.7 2.5 11.5 7.9 14.3 11.3 3.2 3.9 2.5 3.5 -3.3 -1.9z"/>
  <path d="M642.9 155.2 c0.5 -1 1.8 -2.5 2.7 -3.3 1.1 -0.9 0.9 -0.2 -0.6 1.9 -2.6 3.5 -3.6 4.2 -2.1 1.4z"/>
  <path d="M705 154 c3.4 -1.1 6 -1.1 3.5 0 -1.1 0.5 -2.9 0.8 -4 0.8 -1.6 0 -1.5 -0.2 0.5 -0.8z"/>
  <path d="M653.5 143 c3.2 -3.3 6 -5.8 6.2 -5.6 0.4 0.4 -10.8 11.6 -11.6 11.6 -0.3 0 2.1 -2.7 5.4 -6z"/>
  <path d="M764.6 137.5 c-6.2 -4.7 -8.1 -6.4 -5.6 -5 2.3 1.3 12 8.7 12 9.1 0 0.7 -0.4 0.4 -6.4 -4.1z"/>
  <path d="M693.5 137.5 c1.7 -0.8 3.9 -1.4 5 -1.4 1.1 0 0 0.7 -2.5 1.5 -5.6 1.7 -6.4 1.7 -2.5 -0.1z"/>
  <path d="M729 137.5 c-1.9 -0.7 -2.8 -1.4 -2 -1.4 0.8 0 2.9 0.6 4.5 1.4 3.9 1.7 2.1 1.8 -2.5 0z"/>
  <path d="M703.5 135.1 c3.1 -0.9 10.2 -1.4 9.4 -0.7 -0.2 0.2 -3.1 0.6 -6.4 0.9 -3.9 0.4 -5 0.3 -3 -0.2z"/>
  <path d="M715.5 135 c-1.8 -0.8 -1.8 -0.9 0.5 -0.8 1.4 0 3.6 0.4 5 0.8 2.4 0.8 2.4 0.8 -0.5 0.8 -1.6 0 -3.9 -0.3 -5 -0.8z"/>
  <path d="M671.4 129.5 c1.1 -0.8 2.4 -1.5 3 -1.5 0.5 0 0.1 0.7 -1 1.5 -1 0.8 -2.3 1.4 -2.9 1.4 -0.5 0 -0.1 -0.6 0.9 -1.4z"/>
  <path d="M685 123.5 c4.6 -1.8 6.4 -1.7 2.5 0 -1.6 0.8 -3.7 1.4 -4.5 1.4 -0.8 0 0.1 -0.7 2 -1.4z"/>
  <path d="M696.5 120.6 c2.8 -0.8 7 -1.4 9.5 -1.4 4.5 0.1 4.5 0.1 -1 0.8 -3 0.4 -7.3 1 -9.5 1.3 -3.5 0.5 -3.3 0.4 1 -0.7z"/>
  <path d="M723 120.4 l-6.5 -1.3 6 0.5 c6.6 0.5 14.2 2.3 9.5 2.2 -1.4 -0.1 -5.4 -0.7 -9 -1.4z"/>
 </g>
 <g fill="#191919">
  <path d="M359.3 796.3 c0.9 -0.2 2.5 -0.2 3.5 0 0.9 0.3 0.1 0.5 -1.8 0.5 -1.9 0 -2.7 -0.2 -1.7 -0.5z"/>
  <path d="M286.4 738.5 c0 -4.9 0.1 -7.1 0.3 -4.8 0.2 2.3 0.2 6.4 0 9 -0.2 2.6 -0.3 0.8 -0.3 -4.2z"/>
  <path d="M275.3 719.3 c0.9 -0.2 2.5 -0.2 3.5 0 0.9 0.3 0.1 0.5 -1.8 0.5 -1.9 0 -2.7 -0.2 -1.7 -0.5z"/>
  <path d="M307.1 706.3 c0 -1.2 -0.4 -3 -0.7 -4 -0.5 -1.7 -0.5 -1.7 0.6 0 0.6 1 0.9 2.8 0.7 4 -0.4 2.2 -0.4 2.2 -0.6 0z"/>
  <path d="M445.3 677.5 c0 -2.7 0.2 -3.8 0.4 -2.2 0.2 1.5 0.2 3.7 0 5 -0.2 1.2 -0.4 0 -0.4 -2.8z"/>
  <path d="M301.8 562.3 c1.2 -0.2 3.2 -0.2 4.5 0 1.2 0.2 0.2 0.4 -2.3 0.4 -2.5 0 -3.5 -0.2 -2.2 -0.4z"/>
  <path d="M320.3 561.3 c1.5 -0.2 3.7 -0.2 5 0 1.2 0.2 0 0.4 -2.8 0.4 -2.7 0 -3.8 -0.2 -2.2 -0.4z"/>
  <path d="M340.8 560.3 c1.2 -0.2 3.2 -0.2 4.5 0 1.2 0.2 0.2 0.4 -2.3 0.4 -2.5 0 -3.5 -0.2 -2.2 -0.4z"/>
  <path d="M517 546.5 c1.9 -1.9 3.6 -3.5 3.9 -3.5 0.3 0 -1 1.6 -2.9 3.5 -1.9 1.9 -3.6 3.5 -3.9 3.5 -0.3 0 1 -1.6 2.9 -3.5z"/>
  <path d="M304.3 546.3 c0.9 -0.2 2.5 -0.2 3.5 0 0.9 0.3 0.1 0.5 -1.8 0.5 -1.9 0 -2.7 -0.2 -1.7 -0.5z"/>
  <path d="M313.8 545.3 c1.2 -0.2 3.2 -0.2 4.5 0 1.2 0.2 0.2 0.4 -2.3 0.4 -2.5 0 -3.5 -0.2 -2.2 -0.4z"/>
  <path d="M548 512.5 c4.7 -4.7 8.7 -8.5 9 -8.5 0.2 0 -3.3 3.8 -8 8.5 -4.7 4.7 -8.7 8.5 -9 8.5 -0.2 0 3.3 -3.8 8 -8.5z"/>
  <path d="M398 516.7 c0 -0.2 1.4 -1.3 3 -2.5 1.7 -1.3 3 -1.9 3 -1.4 0 0.4 -1.3 1.6 -3 2.5 -1.6 1 -3 1.6 -3 1.4z"/>
  <path d="M578 505.5 c5.2 -5.2 9.7 -9.5 10 -9.5 0.2 0 -3.8 4.3 -9 9.5 -5.2 5.2 -9.7 9.5 -10 9.5 -0.2 0 3.8 -4.3 9 -9.5z"/>
  <path d="M454.5 471.1 c1.1 -1.3 2.8 -2.7 3.9 -3.3 2.9 -1.6 1.1 0.7 -2.7 3.3 l-3.2 2.3 2 -2.3z"/>
  <path d="M466 460.5 c1.9 -1.9 3.6 -3.5 3.9 -3.5 0.3 0 -1 1.6 -2.9 3.5 -1.9 1.9 -3.6 3.5 -3.9 3.5 -0.3 0 1 -1.6 2.9 -3.5z"/>
  <path d="M498 453.5 c3 -3 5.7 -5.5 5.9 -5.5 0.3 0 -1.9 2.5 -4.9 5.5 -3 3 -5.7 5.5 -5.9 5.5 -0.3 0 1.9 -2.5 4.9 -5.5z"/>
  <path d="M481 446.5 c3 -3 5.7 -5.5 5.9 -5.5 0.3 0 -1.9 2.5 -4.9 5.5 -3 3 -5.7 5.5 -5.9 5.5 -0.3 0 1.9 -2.5 4.9 -5.5z"/>
  <path d="M611 451.7 c0 -0.2 2.8 -2.8 6.3 -5.8 3.4 -2.9 5.6 -4.6 4.8 -3.6 -1.6 2 -11.1 10.1 -11.1 9.4z"/>
  <path d="M533.5 418 c2.7 -2.7 5.1 -5 5.4 -5 0.3 0 -1.7 2.3 -4.4 5 -2.7 2.8 -5.1 5 -5.4 5 -0.3 0 1.7 -2.2 4.4 -5z"/>
  <path d="M648 420.7 c0 -0.3 1.7 -1.7 3.7 -3.3 2 -1.5 3.3 -2.3 2.9 -1.6 -0.8 1.3 -6.6 5.6 -6.6 4.9z"/>
  <path d="M512 415.5 c1.9 -1.9 3.6 -3.5 3.9 -3.5 0.3 0 -1 1.6 -2.9 3.5 -1.9 1.9 -3.6 3.5 -3.9 3.5 -0.3 0 1 -1.6 2.9 -3.5z"/>
  <path d="M532 394.7 c0 -0.2 1.5 -1.6 3.3 -3.3 l3.2 -2.9 -2.9 3.3 c-2.8 3 -3.6 3.7 -3.6 2.9z"/>
  <path d="M562 386.5 c1.9 -1.9 3.6 -3.5 3.9 -3.5 0.3 0 -1 1.6 -2.9 3.5 -1.9 1.9 -3.6 3.5 -3.9 3.5 -0.3 0 1 -1.6 2.9 -3.5z"/>
  <path d="M765.8 386.3 c1.2 -0.2 3 -0.2 4 0 0.9 0.3 -0.1 0.5 -2.3 0.4 -2.2 0 -3 -0.2 -1.7 -0.4z"/>
  <path d="M776.3 385.3 c0.9 -0.2 2.5 -0.2 3.5 0 0.9 0.3 0.1 0.5 -1.8 0.5 -1.9 0 -2.7 -0.2 -1.7 -0.5z"/>
  <path d="M549.9 375.2 c0.5 -1 1.8 -2.5 2.7 -3.3 1.1 -0.9 0.9 -0.2 -0.6 1.9 -2.6 3.5 -3.6 4.2 -2.1 1.4z"/>
  <path d="M733.8 371.3 c1.2 -0.2 3.2 -0.2 4.5 0 1.2 0.2 0.2 0.4 -2.3 0.4 -2.5 0 -3.5 -0.2 -2.2 -0.4z"/>
  <path d="M752.8 370.3 c1.8 -0.2 4.5 -0.2 6 0 1.5 0.2 0 0.4 -3.3 0.4 -3.3 0 -4.5 -0.2 -2.7 -0.4z"/>
  <path d="M886.2 301 c0 -1.9 0.2 -2.7 0.5 -1.7 0.2 0.9 0.2 2.5 0 3.5 -0.3 0.9 -0.5 0.1 -0.5 -1.8z"/>
  <path d="M634.3 261 c0 -3.6 0.2 -5 0.4 -3.2 0.2 1.7 0.2 4.7 0 6.5 -0.2 1.7 -0.4 0.3 -0.4 -3.3z"/>
  <path d="M635.3 247 c0 -2.5 0.2 -3.5 0.4 -2.2 0.2 1.2 0.2 3.2 0 4.5 -0.2 1.2 -0.4 0.2 -0.4 -2.3z"/>
  <path d="M619.3 239.5 c0 -2.7 0.2 -3.8 0.4 -2.2 0.2 1.5 0.2 3.7 0 5 -0.2 1.2 -0.4 0 -0.4 -2.8z"/>
  <path d="M774.6 232.2 c-0.3 -0.5 1.8 -0.7 4.7 -0.5 7.5 0.6 8.1 1.1 1.5 1.2 -3.1 0.1 -5.9 -0.3 -6.2 -0.7z"/>
  <path d="M620.2 229 c0 -1.9 0.2 -2.7 0.5 -1.7 0.2 0.9 0.2 2.5 0 3.5 -0.3 0.9 -0.5 0.1 -0.5 -1.8z"/>
  <path d="M773.2 226 c0 -1.9 0.2 -2.7 0.5 -1.7 0.2 0.9 0.2 2.5 0 3.5 -0.3 0.9 -0.5 0.1 -0.5 -1.8z"/>
  <path d="M809.7 212.3 c1.8 -0.2 5 -0.2 7 0 2.1 0.2 0.7 0.4 -3.2 0.4 -3.8 0 -5.5 -0.2 -3.8 -0.4z"/>
  <path d="M717.4 167.7 c1 -0.8 2.2 -3.1 2.6 -5.3 0.7 -3.5 0.8 -3.6 0.9 -0.9 0.1 3.2 -2.3 7.5 -4.1 7.5 -0.7 0 -0.4 -0.6 0.6 -1.3z"/>
  <path d="M711 154 l-4.5 -0.7 4 -0.1 c2.2 -0.1 4.7 0.3 5.5 0.8 0.8 0.5 1.1 0.9 0.5 0.8 -0.5 0 -3 -0.4 -5.5 -0.8z"/>
  <path d="M772 143.5 c-2.4 -2.5 -4.2 -4.5 -3.9 -4.5 0.3 0 2.5 2 4.9 4.5 2.4 2.5 4.2 4.5 3.9 4.5 -0.3 0 -2.5 -2 -4.9 -4.5z"/>
  <path d="M654 142.7 c0 -0.2 1.5 -1.6 3.3 -3.3 l3.2 -2.9 -2.9 3.3 c-2.8 3 -3.6 3.7 -3.6 2.9z"/>
  <path d="M713.5 135 l-4 -0.7 3.5 0 c1.9 -0.1 4.9 0.3 6.5 0.7 2.7 0.7 2.7 0.8 0.5 0.7 -1.4 0 -4.3 -0.3 -6.5 -0.7z"/>
  <path d="M727.5 121 c-2.8 -0.7 -2.8 -0.8 -0.5 -0.9 1.4 0 3.2 0.4 4 0.9 1.7 1.1 0.8 1.1 -3.5 0z"/>
  <path d="M702.3 119.3 c0.9 -0.2 2.5 -0.2 3.5 0 0.9 0.3 0.1 0.5 -1.8 0.5 -1.9 0 -2.7 -0.2 -1.7 -0.5z"/>
 </g>
 <g fill="#212121">
  <path d="M459.2 705 c0 -1.9 0.2 -2.7 0.5 -1.7 0.2 0.9 0.2 2.5 0 3.5 -0.3 0.9 -0.5 0.1 -0.5 -1.8z"/>
  <path d="M445.3 669 c0 -4.1 0.2 -5.8 0.4 -3.7 0.2 2 0.2 5.4 0 7.5 -0.2 2 -0.4 0.3 -0.4 -3.8z"/>
  <path d="M519.5 408 c3.8 -3.8 7.2 -7 7.4 -7 0.3 0 -2.6 3.2 -6.4 7 -3.8 3.9 -7.2 7 -7.4 7 -0.3 0 2.6 -3.1 6.4 -7z"/>
  <path d="M634.3 268.5 c0 -2.7 0.2 -3.8 0.4 -2.2 0.2 1.5 0.2 3.7 0 5 -0.2 1.2 -0.4 0 -0.4 -2.8z"/>
  <path d="M619.2 239 c0 -1.9 0.2 -2.7 0.5 -1.7 0.2 0.9 0.2 2.5 0 3.5 -0.3 0.9 -0.5 0.1 -0.5 -1.8z"/>
  <path d="M794.3 193.5 c0 -3.3 0.2 -4.5 0.4 -2.7 0.2 1.8 0.2 4.5 0 6 -0.2 1.5 -0.4 0 -0.4 -3.3z"/>
  <path d="M709.3 153.3 c0.9 -0.2 2.5 -0.2 3.5 0 0.9 0.3 0.1 0.5 -1.8 0.5 -1.9 0 -2.7 -0.2 -1.7 -0.5z"/>
 </g>
 <g fill="#292929">
 </g>
 <g fill="#313131">
 </g>
 <g fill="#3a3a3a">
 </g>
 <g fill="#424242">
 </g>
 <g fill="#4a4a4a">
 </g>
 <g fill="#525252">
 </g>
 <g fill="#5a5a5a">
 </g>
 <g fill="#636363">
 </g>
 <g fill="#6b6b6b">
 </g>
 <g fill="#737373">
 </g>
 <g fill="#7b7b7b">
 </g>
 <g fill="#848484">
 </g>
 <g fill="#8c8c8c">
 </g>
 <g fill="#949494">
 </g>
 <g fill="#9c9c9c">
 </g>
 <g fill="#a5a5a5">
 </g>
 <g fill="#adadad">
 </g>
 <g fill="#b5b5b5">
 </g>
 <g fill="#bdbdbd">
 </g>
 <g fill="#c5c5c5">
 </g>
 <g fill="#cecece">
 </g>
 <g fill="#d6d6d6">
 </g>
 <g fill="#dedede">
 </g>
 <g fill="#e6e6e6">
 </g>
 <g fill="#efefef">
 </g>
 <g fill="#f7f7f7">
 </g>
 <g fill="#ffffff">
 </g>
</svg>