<?xml version="1.0" encoding="utf-8"?>
<!DOCTYPE svg PUBLIC "-//W3C//DTD SVG 1.0//EN" "http://www.w3.org/TR/2001/REC-SVG-20010904/DTD/svg10.dtd">
<svg version="1.0" xmlns="http://www.w3.org/2000/svg" width="1028px" height="880px" viewBox="0 0 1028 880" preserveAspectRatio="xMidYMid meet">
 <g fill="#000000">
  <path d="M360.75 816.20 c-14.85 -1.45 -26.10 -4.75 -36.50 -10.75 -2.35 -1.35 -4.40 -2.45 -4.55 -2.45 -0.40 0 -5.40 -3.60 -8.85 -6.40 -5.90 -4.80 -14.85 -15.10 -18.50 -21.35 -1.60 -2.75 -5.35 -10.75 -5.35 -11.40 0 -0.35 -0.20 -0.85 -0.45 -1.10 -0.40 -0.45 -1.70 -5.60 -3.05 -12.25 -0.60 -2.90 -0.40 -21.60 0.25 -26.20 0.35 -2.40 0.35 -2.45 -0.80 -2.15 -3.05 0.75 -13.75 1.45 -18.70 1.20 -14.40 -0.75 -24.55 -4.10 -37.25 -12.40 -6.25 -4.10 -14.30 -11.70 -19.30 -18.20 -5.25 -6.85 -11 -17.75 -13.65 -25.75 -4.70 -14.40 -5.60 -33.80 -2.30 -48.25 0.60 -2.60 2.30 -8.45 2.70 -9.50 0.25 -0.55 0.75 -1.80 1.10 -2.75 0.65 -1.80 4.60 -9.75 6.55 -13.25 5.40 -9.45 16.50 -21.70 24.40 -26.85 9.30 -6 13.15 -8.15 21.75 -11.90 2.30 -1 10.75 -3.75 17.65 -5.70 12 -3.50 36.60 -6.15 66.65 -7.30 14.10 -0.55 18.50 -1.10 22.45 -2.85 8.05 -3.50 16.90 -8.70 30.75 -18.05 6.35 -4.25 12.05 -8.20 12.75 -8.70 0.70 -0.55 4.60 -3.50 8.70 -6.55 4.10 -3.10 8.15 -6.15 9.05 -6.85 4.65 -3.60 5.75 -4.45 8.55 -6.75 28.65 -23.60 42.80 -36.50 73.85 -67.25 18.60 -18.40 27.55 -27.85 44.35 -46.80 8.45 -9.55 9.30 -10.50 18.75 -21.85 1.10 -1.35 2.70 -3.25 3.50 -4.30 0.85 -1.05 2.85 -3.60 4.50 -5.60 2.60 -3.20 12.90 -16.75 16.10 -21.20 9 -12.60 22.75 -34.80 25.95 -42.10 2.65 -5.85 2.75 -6.65 3.50 -24.65 0.60 -15.20 1.10 -22.10 2.70 -39 0.75 -7.70 2.25 -16.10 4.55 -25.50 0.75 -3.15 1.55 -6.55 1.75 -7.50 0.15 -0.95 0.75 -2.65 1.20 -3.75 0.50 -1.10 1.05 -2.55 1.25 -3.25 1.40 -5.30 6.60 -15.85 11.25 -22.85 13.70 -20.50 33.15 -33.70 57.50 -38.95 6.15 -1.35 27.70 -1.35 34.25 -0.05 5.45 1.10 12.15 2.80 13.20 3.35 0.45 0.25 2.15 0.95 3.80 1.55 3 1.15 4.15 1.70 10.35 5.25 11.90 6.80 22.65 17.05 29.50 28.20 2.50 4 6.75 13.10 8.05 17.25 2.30 7.15 2.60 9.65 2.60 21.50 -0.05 7.75 -0.25 12.20 -0.70 13.70 -0.35 1.15 -0.55 2.20 -0.45 2.25 0.10 0.05 1.85 -0.05 3.90 -0.25 9.10 -0.90 17.55 -1.10 22.10 -0.50 4.65 0.65 11.75 2.20 13.65 3 0.55 0.25 3 1.30 5.45 2.30 11.60 4.80 25 15.70 32.40 26.25 10.90 15.60 15.70 30.30 16.25 49.75 0.25 9.40 -0.25 17.15 -1.40 22.10 -2.65 11 -3.60 13.60 -7.40 20.90 -7.55 14.55 -17.25 25.30 -31.20 34.65 -1.30 0.90 -2.50 1.60 -2.60 1.60 -0.15 0 -1.65 0.85 -3.35 1.90 -13.20 7.85 -35.20 13.95 -60.15 16.60 -8.25 0.85 -25.75 1.95 -37.75 2.30 -11.15 0.30 -16.10 0.95 -20.50 2.55 -5.70 2.10 -33.65 19.45 -43 26.65 -0.95 0.75 -4.80 3.60 -8.50 6.35 -7.55 5.60 -14.75 11.25 -23.95 18.80 -15.40 12.65 -17.60 14.55 -26.45 22.60 -4.50 4.15 -10.50 9.55 -13.30 12.05 -12.60 11.35 -50.80 50.30 -67.05 68.35 -7.05 7.90 -18.65 21.35 -24.45 28.55 -8.85 10.90 -10.75 13.25 -12.05 15 -6 7.85 -8.85 11.75 -11.25 15.10 -1.50 2.10 -3.75 5.20 -5 6.90 -6.95 9.35 -16.20 24.25 -20.70 33.15 -3.95 7.95 -4.35 9.95 -4.80 25.90 -0.70 22.35 -2.90 45.35 -5.60 59 -1.40 7.15 -4.90 20 -5.90 21.85 -0.30 0.50 -0.50 1.10 -0.50 1.40 0 0.30 -0.55 1.60 -1.20 2.95 -0.65 1.35 -1.30 3.05 -1.50 3.80 -0.30 1.15 -1.15 2.75 -6.05 11.50 -3.20 5.75 -7.30 10.90 -13.75 17.25 -11.65 11.55 -21.95 17.55 -38.85 22.70 -7.10 2.15 -23.30 3.75 -30.90 3z m16.05 -23.45 c8.20 -1.45 17.30 -4.90 24.95 -9.45 5.95 -3.55 15.10 -12.20 19.35 -18.30 3.10 -4.45 8.40 -14.05 8.40 -15.25 0 -0.25 0.35 -1.15 0.80 -2 1.30 -2.55 4.20 -11.30 5.25 -16 3.80 -16.70 5.65 -34.10 6.45 -59.75 0.50 -16.40 0.95 -20.25 2.90 -26.50 2.10 -6.65 6.45 -16.35 8.60 -19.25 0.25 -0.25 1 -1.60 1.75 -3 2.20 -4.05 12.85 -19.85 20.45 -30.40 1.95 -2.70 3.90 -5.45 4.30 -6.05 0.70 -1.05 7.70 -10.05 13.25 -17 5.05 -6.40 10.55 -13.05 12.80 -15.50 1.25 -1.40 2.60 -3 3 -3.60 0.40 -0.60 2.65 -3.15 5 -5.75 4.45 -4.90 12.10 -13.55 15.90 -18.10 3.55 -4.20 33.05 -34.75 43.90 -45.35 15.05 -14.85 29.60 -28.25 44.65 -41.25 3.70 -3.20 8.10 -7 9.75 -8.45 2.65 -2.30 10.05 -8.30 14.60 -11.80 11.75 -9.10 15.40 -11.85 16.35 -12.50 0.60 -0.40 3.30 -2.45 6.05 -4.50 6.20 -4.65 24.10 -16.65 31.50 -21.10 7.80 -4.70 14.90 -8.25 20.25 -10.25 7.15 -2.65 17.60 -3.90 36.60 -4.40 22.15 -0.60 40.30 -2.60 52.20 -5.75 9.20 -2.45 20.20 -6.55 24.70 -9.25 0.95 -0.55 2.45 -1.35 3.25 -1.75 8.75 -4.30 20.70 -16.90 25.85 -27.25 2 -3.95 4.75 -10.75 5.60 -13.75 3.40 -12.30 2.60 -25.95 -2.30 -37.95 -4.15 -10.30 -8.20 -16.45 -15.35 -23.55 -7.05 -7 -13.25 -11.05 -21.30 -13.90 -8 -2.80 -15 -3.20 -24.50 -1.35 -1.90 0.35 -5.50 1.05 -8 1.50 -2.45 0.40 -5.45 1 -6.60 1.25 -3 0.70 -12.15 0.60 -13.65 -0.15 -1.90 -0.90 -3.50 -4.55 -3.50 -7.85 0 -3.10 0.95 -9.85 2.50 -18 2.35 -12.45 2.70 -15.50 2.05 -19.90 -2.05 -14.40 -12.90 -30.60 -26.80 -39.95 -6.55 -4.40 -17.65 -8.90 -25.75 -10.40 -5.90 -1.15 -13.95 -1.15 -19.25 -0.05 -8.15 1.70 -20.95 7 -25.75 10.70 -0.95 0.75 -2.40 1.80 -3.15 2.25 -2.30 1.50 -10.85 10.30 -13.85 14.40 -1.55 2.10 -3.65 5.25 -4.65 7 -2.80 5.10 -4.85 9.15 -4.85 9.70 0 0.25 -0.30 1.10 -0.70 1.80 -1.15 2.25 -3.65 10 -5.05 15.70 -3.55 14.60 -6.75 44.95 -6.75 64.35 0 6.80 -0.90 14.75 -2.20 20.15 -1.70 7.05 -7.20 17.75 -17.95 34.95 -2.45 3.95 -10.85 16.15 -13.80 20.15 -1.25 1.70 -3.20 4.40 -4.30 5.95 -4.05 5.70 -6.60 9.10 -11.50 15.15 -2.75 3.40 -5.65 7 -6.50 8.05 -5.70 7.05 -9 11 -13 15.50 -1.35 1.55 -4.75 5.35 -7.50 8.50 -2.75 3.15 -6.70 7.55 -8.80 9.75 -2.05 2.20 -4.35 4.75 -5.10 5.70 -6.50 8 -51.25 52.75 -63.85 63.80 -1.50 1.30 -4.90 4.35 -7.50 6.75 -2.60 2.40 -8.90 7.95 -14 12.30 -12.80 10.95 -14.95 12.80 -16.55 13.95 -0.75 0.55 -3 2.35 -5.05 4 -4.95 4.10 -8 6.40 -15.70 12.20 -2.75 2.05 -5.60 4.20 -6.45 4.85 -7.50 5.90 -25.30 17.95 -34.90 23.70 -18.20 10.85 -26.05 13.05 -48.35 13.75 -12.05 0.35 -28 1.50 -39.25 2.80 -4.95 0.60 -9.15 1.15 -9.30 1.25 -0.20 0.10 -2 0.40 -4 0.70 -4.05 0.60 -13.90 2.90 -14.70 3.50 -0.25 0.20 -1.75 0.75 -3.25 1.20 -1.50 0.50 -4.15 1.55 -5.90 2.35 -1.75 0.80 -3.25 1.45 -3.40 1.45 -0.70 0 -7.55 3.70 -10.50 5.70 -1.90 1.25 -4 2.70 -4.70 3.15 -0.70 0.45 -3.35 2.85 -5.90 5.35 -9.80 9.55 -17.60 23.20 -20.40 35.85 -1.05 4.70 -1.20 16.40 -0.30 21.20 2.95 15.15 12.65 31.45 23.85 39.90 4.90 3.70 12.10 7.95 14.80 8.80 0.95 0.25 2.95 0.95 4.45 1.45 4.90 1.70 10.55 2.20 16.50 1.40 6.45 -0.85 17.85 -3.05 21.30 -4.05 1.45 -0.40 4.50 -0.75 7.05 -0.75 5.20 0 6.40 0.60 8.25 4.15 1.40 2.70 1.45 8.45 0.20 14.10 -4.80 21.55 -5.15 29.45 -1.75 38.50 4.65 12.35 13.60 23.45 24.60 30.45 6.85 4.40 15.05 7.65 24.85 9.95 4.35 1 13.80 1.05 19.30 0.10z"/>
  <path d="M661.25 223.70 c-4.75 -1.75 -7.15 -6.40 -6.55 -12.65 0.45 -4.65 2.15 -12.50 3.90 -18.05 1.65 -5.30 2.15 -6.45 5 -12.25 8.25 -16.55 23.40 -27.20 42.90 -30.25 4.85 -0.75 7.65 -0.60 10.65 0.50 5.05 1.90 7.10 5.40 6.75 11.75 -0.15 3.10 -0.40 4 -1.65 5.80 -2 2.80 -4.30 3.90 -9.30 4.40 -5.80 0.60 -7.75 1.20 -12.95 3.90 -3.30 1.70 -5.50 3.30 -8.25 6 -4.15 4.10 -5.55 6.05 -8.35 11.90 -1.10 2.20 -2.15 4.40 -2.40 4.85 -0.65 1.15 -1.30 3.80 -2.95 11.65 -1.55 7.20 -2.30 9 -4.50 10.90 -2.65 2.20 -8.50 2.95 -12.30 1.55z"/>
 </g>
 <g fill="#ffffff">
  <path d="M0 440 l0 -440 514 0 514 0 0 440 0 440 -514 0 -514 0 0 -440z m381.65 373.50 c3.25 -0.55 7.05 -1.35 8.50 -1.80 16.90 -5.15 27.20 -11.15 38.85 -22.70 6.45 -6.35 10.55 -11.50 13.75 -17.25 4.90 -8.75 5.75 -10.35 6.05 -11.50 0.20 -0.75 0.85 -2.45 1.50 -3.80 0.65 -1.35 1.20 -2.65 1.20 -2.95 0 -0.30 0.20 -0.90 0.50 -1.40 1 -1.85 4.50 -14.70 5.90 -21.85 2.65 -13.15 4.90 -36.90 5.35 -55.50 0.35 -14.55 0.50 -16.65 1.80 -21.25 2.10 -7.55 13.25 -26.80 23.95 -41.30 1.25 -1.70 3.50 -4.80 5 -6.90 2.40 -3.35 5.25 -7.25 11.25 -15.10 1.30 -1.75 3.20 -4.10 12.05 -15 18.10 -22.30 38.90 -44.95 67.45 -73.40 10.45 -10.40 21.30 -21 24.05 -23.50 2.80 -2.50 8.80 -7.90 13.30 -12.05 8.85 -8.05 11.05 -9.95 26.45 -22.60 9.20 -7.55 16.40 -13.20 23.95 -18.80 3.70 -2.75 7.55 -5.60 8.50 -6.35 9.35 -7.20 37.30 -24.55 43 -26.65 4.40 -1.60 9.35 -2.25 20.25 -2.55 11.85 -0.35 29.95 -1.45 38 -2.30 24.95 -2.65 46.95 -8.75 60.15 -16.60 1.70 -1.05 3.20 -1.90 3.35 -1.90 0.10 0 1.30 -0.70 2.60 -1.60 9.85 -6.60 19.60 -16 24.90 -23.90 4.85 -7.35 9.95 -17.30 11 -21.50 0.10 -0.40 0.65 -2.30 1.15 -4.25 2.70 -9.80 3.35 -15.70 2.95 -26.50 -0.65 -18.15 -5.70 -33.15 -16.25 -48.25 -7.40 -10.55 -20.80 -21.45 -32.40 -26.25 -2.45 -1 -4.90 -2.05 -5.45 -2.30 -1.90 -0.80 -9 -2.35 -13.65 -3 -5.30 -0.70 -10.30 -0.45 -25.35 1.20 -0.85 0.10 -0.95 -0.15 -0.85 -1.65 0.05 -0.95 0.40 -2.85 0.75 -4.25 0.95 -4.15 0.80 -21.20 -0.30 -25.75 -2.60 -10.90 -7.95 -22.05 -14.80 -30.75 -6.15 -7.85 -15.45 -15.80 -24.45 -20.95 -6.20 -3.55 -7.35 -4.10 -10.35 -5.25 -1.65 -0.60 -3.35 -1.30 -3.80 -1.55 -1.05 -0.55 -7.75 -2.25 -13.20 -3.35 -6.45 -1.30 -25.15 -1.30 -31.25 0.05 -24.30 5.25 -43.80 18.45 -57.50 38.95 -4.65 7 -9.85 17.55 -11.25 22.85 -0.20 0.70 -0.75 2.15 -1.25 3.25 -0.45 1.10 -1.05 2.80 -1.20 3.75 -0.20 0.95 -1 4.35 -1.75 7.50 -2.35 9.50 -3.80 17.80 -4.55 25.75 -0.25 2.50 -0.65 6.75 -0.95 9.50 -0.75 7.30 -1.45 20.55 -1.80 32.25 -0.40 13.60 -0.65 15.45 -3.45 21.65 -3.20 7.30 -16.95 29.50 -25.95 42.10 -3.20 4.45 -13.50 18 -16.10 21.20 -1.65 2 -3.65 4.55 -4.50 5.60 -4.50 5.70 -13.15 15.90 -22.25 26.15 -16.80 18.95 -25.75 28.40 -44.35 46.80 -31.05 30.75 -45.20 43.65 -73.85 67.25 -2.80 2.30 -3.90 3.15 -8.55 6.75 -0.90 0.70 -4.95 3.75 -9.05 6.85 -4.10 3.05 -8 6 -8.70 6.55 -0.70 0.50 -6.40 4.45 -12.75 8.70 -13.85 9.35 -22.70 14.55 -30.75 18.05 -3.95 1.75 -8.35 2.30 -22.45 2.85 -18.25 0.70 -25.10 1.15 -42.55 3.05 -8.10 0.90 -19.25 2.85 -24.10 4.25 -6.90 1.95 -15.35 4.70 -17.65 5.70 -8.60 3.75 -12.45 5.90 -21.75 11.90 -7.90 5.15 -19 17.40 -24.40 26.85 -1.95 3.50 -5.90 11.45 -6.55 13.25 -0.35 0.95 -0.85 2.20 -1.10 2.75 -0.55 1.40 -2.25 7.45 -2.85 10.50 -3 14.45 -2.05 30.85 2.65 44.75 2.75 8.10 8.25 18.40 13.45 25.25 11.70 15.25 29.75 26.75 46.40 29.60 6.75 1.15 17.85 1.15 25.05 -0.05 3 -0.50 5.55 -0.80 5.65 -0.70 0.20 0.25 -0.70 5.50 -1.35 7.70 -0.60 2 -0.60 18.60 0.05 21.30 2.15 9.70 2.70 11.70 3.05 12.15 0.25 0.25 0.45 0.75 0.45 1.10 0 0.65 3.75 8.65 5.35 11.40 3.65 6.25 12.60 16.55 18.50 21.35 3.45 2.80 8.45 6.40 8.85 6.40 0.15 0 2.20 1.10 4.55 2.45 10.40 6 21.70 9.35 36.50 10.75 4 0.40 13.65 -0.20 19.40 -1.20z"/>
  <path d="M362.50 794.95 c-10.30 -0.80 -22.15 -4.85 -31.35 -10.75 -9.25 -5.90 -17.40 -15.05 -22.05 -24.70 -3.95 -8.20 -4.80 -11.85 -4.75 -20.75 0 -7.55 0.35 -9.95 3.90 -26.45 1.55 -7.20 0.75 -11.65 -2.55 -14.25 -1.65 -1.30 -6.10 -1.45 -9.90 -0.30 -3.60 1.05 -17.10 3.55 -23.10 4.30 -5.85 0.70 -12.80 0.05 -17.65 -1.60 -1.55 -0.55 -3.55 -1.25 -4.50 -1.50 -2.70 -0.85 -9.90 -5.10 -14.80 -8.80 -11.20 -8.45 -20.90 -24.75 -23.85 -39.90 -0.85 -4.60 -0.85 -18.45 0.05 -23 1.70 -8.75 6.40 -19.10 12.50 -27.65 3.20 -4.50 11.10 -12.80 14.05 -14.75 0.70 -0.45 2.80 -1.90 4.70 -3.15 2.95 -2 9.80 -5.70 10.50 -5.70 0.15 0 1.65 -0.65 3.40 -1.45 1.75 -0.80 4.40 -1.85 5.90 -2.35 1.50 -0.45 3 -1 3.25 -1.20 0.80 -0.60 10.65 -2.90 14.70 -3.50 2 -0.30 3.80 -0.60 4 -0.70 0.15 -0.10 4.35 -0.65 9.30 -1.25 11.25 -1.30 27.20 -2.45 39.25 -2.80 22.30 -0.70 30.15 -2.90 48.35 -13.75 9.60 -5.75 27.40 -17.80 34.90 -23.70 0.85 -0.65 3.70 -2.80 6.45 -4.85 7.70 -5.80 10.75 -8.10 15.70 -12.20 2.05 -1.65 4.30 -3.45 5.05 -4 1.60 -1.15 3.75 -3 16.55 -13.95 5.10 -4.35 11.40 -9.90 14 -12.30 2.60 -2.40 6 -5.45 7.50 -6.75 12.60 -11.05 57.35 -55.80 63.85 -63.80 0.75 -0.95 3.05 -3.50 5.10 -5.70 2.10 -2.20 6.05 -6.60 8.80 -9.75 2.75 -3.15 6.15 -6.95 7.50 -8.50 4 -4.50 7.30 -8.45 13 -15.50 0.85 -1.05 3.75 -4.65 6.50 -8.05 4.90 -6.05 7.45 -9.45 11.50 -15.15 1.10 -1.55 3.05 -4.25 4.30 -5.95 2.95 -4 11.35 -16.20 13.80 -20.15 10.75 -17.20 16.25 -27.90 17.95 -34.95 1.30 -5.40 2.20 -13.35 2.20 -20.15 0 -19.40 3.20 -49.75 6.75 -64.35 1.40 -5.70 3.90 -13.45 5.05 -15.70 0.40 -0.70 0.70 -1.55 0.70 -1.80 0 -0.55 2.05 -4.60 4.85 -9.70 1 -1.75 3.10 -4.90 4.65 -7 3 -4.10 11.55 -12.90 13.85 -14.40 0.75 -0.45 2.20 -1.50 3.15 -2.25 4.75 -3.65 17.50 -9 25.75 -10.70 5.55 -1.20 16.05 -1.15 22.25 0 8.15 1.55 19.20 6.05 25.75 10.45 13.30 8.95 23.80 24.10 26.55 38.25 1.20 6.35 0.95 9.90 -2 25.60 -2.35 12.65 -2.60 15.60 -1.60 18.15 0.45 1.20 1.30 2.65 1.85 3.15 1.45 1.30 7.25 1.55 12.80 0.50 2.45 -0.50 5.55 -1.05 6.90 -1.35 1.40 -0.25 4.25 -0.80 6.35 -1.20 5.70 -1.10 14.95 -1.50 19.40 -0.80 7.30 1.15 15.85 4.85 22.50 9.75 3.95 2.90 10.90 9.95 14.10 14.30 4 5.45 8.80 15.40 10.55 22 2.85 10.75 2.85 24.30 0.05 34.50 -0.85 3 -3.60 9.80 -5.60 13.75 -5.15 10.35 -17.10 22.95 -25.85 27.25 -0.80 0.40 -2.30 1.20 -3.25 1.75 -4.50 2.70 -15.50 6.80 -24.70 9.25 -11.35 3 -28.85 5 -50.30 5.75 -30.50 1 -34.80 1.85 -49.50 9.40 -8.65 4.50 -30.20 18.40 -40.75 26.35 -2.75 2.05 -5.45 4.10 -6.05 4.50 -0.95 0.65 -4.60 3.40 -16.35 12.50 -4.55 3.50 -11.95 9.50 -14.60 11.80 -1.65 1.45 -6.05 5.25 -9.75 8.45 -15.05 13 -29.60 26.40 -44.65 41.25 -10.85 10.60 -40.35 41.15 -43.90 45.35 -3.80 4.55 -11.45 13.20 -15.90 18.10 -2.35 2.60 -4.60 5.15 -5 5.75 -0.40 0.60 -1.75 2.20 -3 3.60 -2.25 2.45 -7.75 9.10 -12.80 15.50 -5.55 6.95 -12.55 15.95 -13.25 17 -0.40 0.60 -2.35 3.35 -4.30 6.05 -7.60 10.55 -18.25 26.35 -20.45 30.40 -0.75 1.40 -1.50 2.75 -1.75 3 -2.40 3.25 -6.95 13.75 -8.95 20.75 -1.85 6.60 -2.45 12.45 -2.50 26.20 -0.05 6 -0.20 11.15 -0.35 11.35 -0.15 0.25 -0.45 3.55 -0.70 7.30 -1 15.35 -2.70 27.70 -5.45 39.90 -1.05 4.70 -3.95 13.45 -5.25 16 -0.45 0.85 -0.80 1.75 -0.80 2 0 1.20 -5.30 10.80 -8.40 15.25 -4.25 6.10 -13.40 14.75 -19.35 18.30 -12.85 7.65 -27.10 11.25 -40.75 10.15z m305.50 -572.50 c2.80 -0.60 5.15 -2.30 6.35 -4.65 0.45 -0.85 1.45 -4.45 2.20 -8.05 1.65 -7.85 2.30 -10.50 2.95 -11.65 0.25 -0.45 1.30 -2.65 2.40 -4.85 2.80 -5.85 4.20 -7.80 8.35 -11.90 2.75 -2.70 4.95 -4.30 8.25 -6 5.20 -2.70 7.15 -3.30 12.95 -3.90 4.95 -0.50 7.30 -1.60 9.20 -4.30 3.95 -5.55 1.25 -12.60 -5.60 -14.90 -2.30 -0.75 -3.15 -0.80 -6.70 -0.25 -19.55 2.85 -34.95 13.65 -43.25 30.25 -2.90 5.80 -3.40 7.05 -4.85 11.75 -1.70 5.25 -3.15 11.65 -3.75 16.15 -0.75 6 1.45 10.30 6.25 12.05 2.50 0.90 2.25 0.90 5.25 0.25z"/>
 </g>
</svg>